<?xml version="1.0" encoding="UTF-8"?>
<svg version="1.1" xmlns="http://www.w3.org/2000/svg" width="2084" height="2084">
<path d="M0 0 C3.34321955 1.11440652 4.06019619 1.97472343 6.25 4.625 C8.57375981 7.36859877 10.92880824 9.98671796 13.5 12.5 C15.93389732 14.89053167 18.21355559 17.35046262 20.4375 19.9375 C22.85617779 22.74576347 25.35899683 25.39970593 28 28 C31.27202128 31.2215855 34.29316055 34.58592145 37.28515625 38.06640625 C38.96004299 39.95494597 40.69947587 41.73155648 42.5 43.5 C44.93389732 45.89053167 47.21355559 48.35046262 49.4375 50.9375 C51.85617779 53.74576347 54.35899683 56.39970593 57 59 C60.25029983 62.20029522 63.24724245 65.54224576 66.21875 69 C68.70257428 71.78885533 71.36711437 74.37686983 74.02734375 76.99609375 C76.57337829 79.58246151 78.92021557 82.3153528 81.28515625 85.06640625 C82.96004299 86.95494597 84.69947587 88.73155648 86.5 90.5 C88.93389732 92.89053167 91.21355559 95.35046262 93.4375 97.9375 C95.85617779 100.74576347 98.35899683 103.39970593 101 106 C104.25029983 109.20029522 107.24724245 112.54224576 110.21875 116 C112.70257428 118.78885533 115.36711437 121.37686983 118.02734375 123.99609375 C120.57337829 126.58246151 122.92021557 129.3153528 125.28515625 132.06640625 C126.96004299 133.95494597 128.69947587 135.73155648 130.5 137.5 C132.93389732 139.89053167 135.21355559 142.35046262 137.4375 144.9375 C139.85617779 147.74576347 142.35899683 150.39970593 145 153 C148.25029983 156.20029522 151.24724245 159.54224576 154.21875 163 C156.70257428 165.78885533 159.36711437 168.37686983 162.02734375 170.99609375 C164.57337829 173.58246151 166.92021557 176.3153528 169.28515625 179.06640625 C170.96004299 180.95494597 172.69947587 182.73155648 174.5 184.5 C176.93389732 186.89053167 179.21355559 189.35046262 181.4375 191.9375 C183.85617779 194.74576347 186.35899683 197.39970593 189 200 C192.25029983 203.20029522 195.24724245 206.54224576 198.21875 210 C200.70257428 212.78885533 203.36711437 215.37686983 206.02734375 217.99609375 C208.50183081 220.50978061 210.79452732 223.15090646 213.06640625 225.84765625 C214.85201692 227.971465 214.85201692 227.971465 216.68944357 229.28167315 C219.78048485 231.81038172 221.71605528 233.79965816 222.65148417 237.75407024 C222.89673951 241.21212482 222.92001462 244.61119313 222.87136555 248.07780743 C222.87764907 249.42044497 222.88700362 250.76307102 222.89914158 252.1056684 C222.92365146 255.8025031 222.90452128 259.49802831 222.87839983 263.19480461 C222.85770765 267.21651345 222.87766957 271.23805255 222.89250964 275.25975877 C222.9129371 282.31524929 222.90736669 289.37035008 222.88489723 296.42582893 C222.85159097 306.92620049 222.8584104 317.42627726 222.87356228 327.92667704 C222.89800819 345.63356161 222.89003758 363.34029412 222.8641758 381.04717064 C222.83857162 398.69503559 222.82851719 416.3428044 222.83844566 433.99068642 C222.83936804 435.64317237 222.83936804 435.64317237 222.84030906 437.32904187 C222.84352708 442.92818169 222.84703876 448.52732127 222.85067638 454.12646083 C222.87611498 493.89463051 222.87053631 533.66274069 222.84545898 573.4309082 C222.82149473 611.63989645 222.80594559 649.84886492 222.80639648 688.05786133 C222.80640373 689.22292121 222.80641098 690.38798109 222.80641844 691.58834582 C222.80664618 718.42943636 222.810215 745.27052548 222.81683636 772.11161518 C222.81739607 774.42172358 222.81795525 776.73183197 222.8185139 779.04194036 C222.82186084 792.79939213 222.82186084 792.79939213 222.82558712 806.55684379 C222.83244293 830.85927268 222.83423619 855.16167665 222.8173008 879.46410179 C222.81656925 880.51600188 222.81583771 881.56790197 222.81508399 882.65167783 C222.81435431 883.70077982 222.81362463 884.74988181 222.81287284 885.83077477 C222.79714498 908.53846922 222.78917625 931.24615735 222.79223633 953.95385742 C222.7923509 954.94389128 222.79246548 955.93392514 222.79258353 956.95396003 C222.80244799 1026.88337041 223.37172831 1096.79871937 224.29710865 1166.72179699 C224.30863114 1167.59358796 224.32015362 1168.46537893 224.33202527 1169.36358782 C224.44032201 1177.54232836 224.54989826 1185.72104348 224.66737271 1193.89965789 C224.90212065 1210.26721304 225.06418434 1226.63038754 225 1243 C223.87389188 1242.03878393 222.74834902 1241.07690561 221.62304688 1240.11474609 C220.99619995 1239.57917084 220.36935303 1239.04359558 219.72351074 1238.49179077 C214.61138159 1234.06696944 210.15539295 1229.08215253 205.75 1223.96875 C204.06201714 1222.06976929 202.31230266 1220.27994012 200.5 1218.5 C198.06610268 1216.10946833 195.78644441 1213.64953738 193.5625 1211.0625 C191.14382221 1208.25423653 188.64100317 1205.60029407 186 1203 C182.74970017 1199.79970478 179.75275755 1196.45775424 176.78125 1193 C174.29742572 1190.21114467 171.63288563 1187.62313017 168.97265625 1185.00390625 C166.42662171 1182.41753849 164.07978443 1179.6846472 161.71484375 1176.93359375 C160.03995701 1175.04505403 158.30052413 1173.26844352 156.5 1171.5 C154.06610268 1169.10946833 151.78644441 1166.64953738 149.5625 1164.0625 C147.14382221 1161.25423653 144.64100317 1158.60029407 142 1156 C138.74970017 1152.79970478 135.75275755 1149.45775424 132.78125 1146 C130.29742572 1143.21114467 127.63288563 1140.62313017 124.97265625 1138.00390625 C122.42662171 1135.41753849 120.07978443 1132.6846472 117.71484375 1129.93359375 C116.03995701 1128.04505403 114.30052413 1126.26844352 112.5 1124.5 C110.06610268 1122.10946833 107.78644441 1119.64953738 105.5625 1117.0625 C103.14382221 1114.25423653 100.64100317 1111.60029407 98 1109 C94.74970017 1105.79970478 91.75275755 1102.45775424 88.78125 1099 C86.29742572 1096.21114467 83.63288563 1093.62313017 80.97265625 1091.00390625 C78.42662171 1088.41753849 76.07978443 1085.6846472 73.71484375 1082.93359375 C72.03995701 1081.04505403 70.30052413 1079.26844352 68.5 1077.5 C66.06610268 1075.10946833 63.78644441 1072.64953738 61.5625 1070.0625 C59.14382221 1067.25423653 56.64100317 1064.60029407 54 1062 C50.74970017 1058.79970478 47.75275755 1055.45775424 44.78125 1052 C42.29742572 1049.21114467 39.63288563 1046.62313017 36.97265625 1044.00390625 C34.42662171 1041.41753849 32.07978443 1038.6846472 29.71484375 1035.93359375 C28.03995701 1034.04505403 26.30052413 1032.26844352 24.5 1030.5 C22.06610268 1028.10946833 19.78644441 1025.64953738 17.5625 1023.0625 C14.47652987 1019.47497264 11.19605648 1016.14978267 7.796875 1012.859375 C4.13330454 1009.068376 2.62513385 1006.88663541 2.62329382 1001.49455309 C2.61179955 999.80127327 2.61179955 999.80127327 2.60007307 998.07378578 C2.61034565 996.20920377 2.61034565 996.20920377 2.62082577 994.30695343 C2.61750629 992.96953125 2.61287081 991.63211181 2.60703573 990.29469824 C2.59475366 986.59869983 2.60125894 982.90293133 2.61066494 979.20693318 C2.61759199 975.19097632 2.607153 971.17505961 2.59886509 967.15911055 C2.5867201 960.10910826 2.58572832 953.05917192 2.59192467 946.0091629 C2.60108236 935.51680088 2.59307798 925.02450158 2.58142757 914.53214452 C2.56223528 896.83983103 2.55678894 879.14753814 2.55874443 861.45521545 C2.56059004 843.81884324 2.55532923 826.1824941 2.54106331 808.54612732 C2.54017343 807.44565015 2.53928355 806.34517297 2.53836671 805.21134801 C2.53379474 799.61832142 2.52907765 794.02529497 2.52429188 788.43226856 C2.51458791 777.04696614 2.50585577 765.66166299 2.49742985 754.27635956 C2.49616347 752.56546508 2.49616347 752.56546508 2.4948715 750.82000707 C2.47498864 723.62089281 2.46502998 696.42177604 2.45629883 669.22265625 C2.45591416 668.03246609 2.4555295 666.84227592 2.45513317 665.61601939 C2.45318849 659.59832741 2.45125632 653.58063542 2.44933078 647.56294343 C2.44875865 645.77495685 2.44875865 645.77495685 2.44817496 643.95084932 C2.44740593 641.54254895 2.44663943 639.13424859 2.44587547 636.72594822 C2.43717942 609.37719368 2.42593544 582.02844051 2.41333008 554.6796875 C2.41279673 553.5157271 2.41226338 552.35176669 2.41171386 551.15253476 C2.39938766 524.33665015 2.38492796 497.52076806 2.36577702 470.70488739 C2.36496216 469.56158815 2.3641473 468.41828891 2.36330775 467.24034424 C2.35511593 455.7866615 2.34667474 444.33297898 2.33781785 432.87929674 C2.32001043 409.73366196 2.30623687 386.58804018 2.30496025 363.44239807 C2.30341102 338.62890788 2.29437106 313.81543333 2.27124023 289.00195312 C2.27033555 288.01251117 2.26943086 287.02306922 2.26849875 286.00364418 C2.2028618 216.09087208 1.61456429 146.19058217 0.69572353 76.28400421 C0.68428275 75.41214661 0.67284197 74.54028902 0.6610545 73.64201149 C0.5535587 65.4624634 0.44492892 57.28293803 0.3286936 49.10350896 C0.09649335 32.73492158 -0.06345524 16.37059759 0 0 Z " fill="#000000" transform="translate(396,571)"/>
<path d="M0 0 C2.85767714 1.37189468 4.818729 2.60017883 6.9609375 4.94921875 C7.7806604 5.83855103 7.7806604 5.83855103 8.61694336 6.74584961 C9.19710205 7.38659424 9.77726074 8.02733887 10.375 8.6875 C11.63397004 10.05742452 12.8930887 11.42721247 14.15234375 12.796875 C15.11309814 13.8477832 15.11309814 13.8477832 16.09326172 14.91992188 C19.01985304 18.11256695 21.97876623 21.2746721 24.9375 24.4375 C26.1042191 25.68745106 27.27088528 26.93745151 28.4375 28.1875 C34.61482602 34.80119343 40.808191 41.39986975 47 48 C54.92027438 56.44257995 62.83520782 64.88995833 70.73071289 73.35571289 C74.97995778 77.91056438 79.23814352 82.45694886 83.5 87 C88.34056868 92.15994641 93.17448923 97.32596878 98 102.5 C105.31888662 110.34689422 112.65845278 118.17431159 120 126 C127.92098325 134.44333558 135.83633821 142.89173482 143.73291016 151.35791016 C150.4751384 158.58456457 157.23788748 165.79195734 164 173 C171.92027438 181.44257995 179.83520782 189.88995833 187.73071289 198.35571289 C192.52758719 203.49757942 197.33537236 208.62914662 202.1484375 213.75585938 C203.31250663 214.99637084 204.45575179 216.25665391 205.58076882 217.53268772 C207.49064223 219.48051898 209.2497997 220.97241073 211.40833449 222.59313959 C217.95012067 227.90469086 222.10364924 233.06241664 223.29582644 241.58200276 C223.90242149 249.22850061 223.84849478 256.8669872 223.73426319 264.53019102 C223.68919572 268.60626483 223.72616653 272.68177029 223.75241542 276.75789541 C223.7872424 283.89696547 223.77043275 291.03444425 223.71933556 298.17339516 C223.64354795 308.79801657 223.64854209 319.42154514 223.66979453 330.04636117 C223.70340066 347.96773829 223.67207533 365.88845286 223.60428619 383.80970955 C223.53702408 401.66871033 223.5002409 419.52737096 223.50258636 437.38650322 C223.50278698 439.06094167 223.50278698 439.06094167 223.50299164 440.76920715 C223.50384019 446.44324803 223.50524248 452.11728862 223.50687084 457.79132932 C223.51756771 498.06504671 223.46488491 538.33845552 223.37353516 578.61206055 C223.28603893 617.28002969 223.22046661 655.94790719 223.19091797 694.6159668 C223.19000453 695.79507251 223.18909109 696.97417822 223.18814998 698.1890144 C223.16900589 723.01876646 223.15421034 747.84852089 223.14035852 772.67827638 C223.13448731 783.18758711 223.12832731 793.69689766 223.12209244 804.20620817 C223.12005923 807.67796206 223.11810475 811.14971597 223.11616156 814.62146991 C223.09913395 844.56584742 223.05972075 874.51009622 222.99893131 904.45441559 C222.95901775 924.25092923 222.92792786 944.04745577 222.90332031 963.84399414 C222.90141813 965.34805581 222.90141813 965.34805581 222.89947752 966.88250257 C222.78588644 1058.59713567 223.74048419 1150.29499303 225 1242 C222.03256514 1240.58007377 220.05280949 1239.26265628 217.8203125 1236.83203125 C217.22863281 1236.19394531 216.63695312 1235.55585937 216.02734375 1234.8984375 C215.39957031 1234.21007813 214.77179688 1233.52171875 214.125 1232.8125 C213.46371094 1232.09707031 212.80242187 1231.38164063 212.12109375 1230.64453125 C210.74686861 1229.15775053 209.37481742 1227.66895765 208.00488281 1226.17822266 C205.02059 1222.93591135 202.00992239 1219.71849681 199 1216.5 C197.84235013 1215.25920581 196.68479874 1214.01831973 195.52734375 1212.77734375 C189.36368691 1206.17354852 183.18047536 1199.58804921 177 1193 C169.07901675 1184.55666442 161.16366179 1176.10826518 153.26708984 1167.64208984 C146.5248616 1160.41543543 139.76211252 1153.20804266 133 1146 C125.07901675 1137.55666442 117.16366179 1129.10826518 109.26708984 1120.64208984 C102.5248616 1113.41543543 95.76211252 1106.20804266 89 1099 C81.07901675 1090.55666442 73.16366179 1082.10826518 65.26708984 1073.64208984 C58.5248616 1066.41543543 51.76211252 1059.20804266 45 1052 C37.61817285 1044.13137539 30.23788598 1036.2613582 22.875 1028.375 C22.37411865 1027.83866943 21.8732373 1027.30233887 21.35717773 1026.74975586 C20.29206951 1025.60826938 19.24721791 1024.44764293 18.22022277 1023.27174842 C15.96270649 1020.84698811 15.96270649 1020.84698811 12.84052008 1018.62471402 C6.62432795 1013.61613426 2.88149245 1008.72066485 1.79621851 1000.6622808 C1.23132987 993.24551325 1.28255234 985.83527677 1.38800301 978.40354173 C1.4295874 974.44711534 1.39504653 970.49120069 1.37042826 966.53473294 C1.33766061 959.60452273 1.35286279 952.67572246 1.39986992 945.7456131 C1.46958694 935.43201259 1.46433278 925.11938771 1.44395294 914.80562001 C1.41165866 897.4102736 1.43964253 880.0155115 1.50144386 862.62026596 C1.56274767 845.28795952 1.59571846 827.95595791 1.59229088 810.62353897 C1.5920884 809.54038536 1.59188591 808.45723174 1.5916773 807.34125529 C1.59049025 801.83579877 1.58878663 796.33034253 1.58687123 790.82488622 C1.57407085 751.74820849 1.62002286 712.67179988 1.7019043 673.59521484 C1.78034655 636.06461431 1.83875709 598.53409443 1.86401367 561.00341797 C1.86479558 559.8587015 1.86557749 558.71398503 1.8663831 557.53458018 C1.88275883 533.43457944 1.89506851 509.33457691 1.90610332 485.23457321 C1.91077163 475.03906786 1.9156965 464.84356265 1.92066905 454.64805745 C1.92228449 451.28038508 1.92382298 447.91271268 1.92534908 444.54504026 C1.9387624 415.47980277 1.9736215 386.41468481 2.02857926 357.34949746 C2.064597 338.14690932 2.0918432 318.94430977 2.11254883 299.74169922 C2.11361942 298.76765152 2.11469002 297.79360382 2.11579305 296.79003952 C2.18986441 227.68255603 1.64675253 158.59170658 0.71364307 89.49073601 C0.70199804 88.62444649 0.690353 87.75815698 0.67835508 86.86561627 C0.56916995 78.74535299 0.45923351 70.62511401 0.33852783 62.50501279 C0.03019455 41.66872825 -0.05440764 20.83850648 0 0 Z " fill="#000000" transform="translate(1466,276)"/>
<path d="M0 0 C7.7101154 6.39775533 14.6695177 13.36443732 21.1875 20.96875 C23.2109288 23.23638572 25.33653347 25.3657695 27.5 27.5 C30.9071879 30.86114482 34.07458174 34.33701203 37.1875 37.96875 C39.2109288 40.23638572 41.33653347 42.3657695 43.5 44.5 C46.9071879 47.86114482 50.07458174 51.33701203 53.1875 54.96875 C55.2109288 57.23638572 57.33653347 59.3657695 59.5 61.5 C62.26560408 64.22829407 64.91287031 66.98516834 67.4375 69.9375 C70.15619248 73.1103592 73.02751675 76.06338382 76 79 C79.58558699 82.54232199 82.94891662 86.17555661 86.22265625 90.00390625 C88.94977223 93.06666727 91.89404637 95.90223493 94.8125 98.78125 C97.40196881 101.40771122 99.78836964 104.16976458 102.1875 106.96875 C104.2109288 109.23638572 106.33653347 111.3657695 108.5 113.5 C111.26560408 116.22829407 113.91287031 118.98516834 116.4375 121.9375 C119.15619248 125.1103592 122.02751675 128.06338382 125 131 C128.58558699 134.54232199 131.94891662 138.17555661 135.22265625 142.00390625 C137.94977223 145.06666727 140.89404637 147.90223493 143.8125 150.78125 C146.40196881 153.40771122 148.78836964 156.16976458 151.1875 158.96875 C153.2109288 161.23638572 155.33653347 163.3657695 157.5 165.5 C160.9071879 168.86114482 164.07458174 172.33701203 167.1875 175.96875 C169.2109288 178.23638572 171.33653347 180.3657695 173.5 182.5 C176.26560408 185.22829407 178.91287031 187.98516834 181.4375 190.9375 C184.15619248 194.1103592 187.02751675 197.06338382 190 200 C193.58558699 203.54232199 196.94891662 207.17555661 200.22265625 211.00390625 C202.94977223 214.06666727 205.89404637 216.90223493 208.8125 219.78125 C211.40196881 222.40771122 213.78836964 225.16976458 216.1875 227.96875 C218.2109288 230.23638572 220.33653347 232.3657695 222.5 234.5 C225.9071879 237.86114482 229.07458174 241.33701203 232.1875 244.96875 C234.2109288 247.23638572 236.33653347 249.3657695 238.5 251.5 C241.26560408 254.22829407 243.91287031 256.98516834 246.4375 259.9375 C249.15619248 263.1103592 252.02751675 266.06338382 255 269 C258.58558699 272.54232199 261.94891662 276.17555661 265.22265625 280.00390625 C267.94977223 283.06666727 270.89404637 285.90223493 273.8125 288.78125 C276.40196881 291.40771122 278.78836964 294.16976458 281.1875 296.96875 C283.2109288 299.23638572 285.33653347 301.3657695 287.5 303.5 C290.26560408 306.22829407 292.91287031 308.98516834 295.4375 311.9375 C298.15619248 315.1103592 301.02751675 318.06338382 304 321 C307.58558699 324.54232199 310.94891662 328.17555661 314.22265625 332.00390625 C316.94977223 335.06666727 319.89404637 337.90223493 322.8125 340.78125 C325.40196881 343.40771122 327.78836964 346.16976458 330.1875 348.96875 C332.2109288 351.23638572 334.33653347 353.3657695 336.5 355.5 C339.9071879 358.86114482 343.07458174 362.33701203 346.1875 365.96875 C348.2109288 368.23638572 350.33653347 370.3657695 352.5 372.5 C355.26560408 375.22829407 357.91287031 377.98516834 360.4375 380.9375 C363.15619248 384.1103592 366.02751675 387.06338382 369 390 C372.58558699 393.54232199 375.94891662 397.17555661 379.22265625 401.00390625 C381.94977223 404.06666727 384.89404637 406.90223493 387.8125 409.78125 C390.40196881 412.40771122 392.78836964 415.16976458 395.1875 417.96875 C397.2109288 420.23638572 399.33653347 422.3657695 401.5 424.5 C404.9071879 427.86114482 408.07458174 431.33701203 411.1875 434.96875 C413.2109288 437.23638572 415.33653347 439.3657695 417.5 441.5 C420.26560408 444.22829407 422.91287031 446.98516834 425.4375 449.9375 C428.15619248 453.1103592 431.02751675 456.06338382 434 459 C437.57850829 462.5353287 440.93951457 466.156751 444.19921875 469.984375 C447.03329392 473.15657193 450.10857104 476.07854685 453.1796875 479.01953125 C455 481 455 481 456 484 C455.11441406 484.825 454.22882812 485.65 453.31640625 486.5 C446.19953936 493.13365885 439.0922771 499.77755442 432 506.4375 C431.30720947 507.08654297 430.61441895 507.73558594 429.90063477 508.40429688 C426.63183012 511.4772963 423.40338709 514.57786124 420.2421875 517.76171875 C417.94700402 520.07283198 415.62075496 522.27856583 413.125 524.375 C410.1153247 526.96634205 407.28911384 529.67254783 404.5 532.5 C401.13885518 535.9071879 397.66298797 539.07458174 394.03125 542.1875 C391.76361428 544.2109288 389.6342305 546.33653347 387.5 548.5 C384.77170593 551.26560408 382.01483166 553.91287031 379.0625 556.4375 C375.8896408 559.15619248 372.93661618 562.02751675 370 565 C366.45767801 568.58558699 362.82444339 571.94891662 358.99609375 575.22265625 C355.93333273 577.94977223 353.09776507 580.89404637 350.21875 583.8125 C347.59228878 586.40196881 344.83023542 588.78836964 342.03125 591.1875 C339.76361428 593.2109288 337.6342305 595.33653347 335.5 597.5 C332.14272075 600.90326937 328.67210829 604.0681947 325.04296875 607.17578125 C321.91006511 609.97323058 319.00312792 612.98731322 316.0546875 615.9765625 C313.82995378 618.16745996 311.50778739 620.13938355 309 622 C305.80636047 620.62140072 304.00638231 619.11891172 301.8125 616.4375 C299.16749316 613.3054041 296.42384916 610.37403913 293.5 607.5 C290.0928121 604.13885518 286.92541826 600.66298797 283.8125 597.03125 C281.7890712 594.76361428 279.66346653 592.6342305 277.5 590.5 C274.73439592 587.77170593 272.08712969 585.01483166 269.5625 582.0625 C266.84380752 578.8896408 263.97248325 575.93661618 261 573 C257.41441301 569.45767801 254.05108338 565.82444339 250.77734375 561.99609375 C248.05022777 558.93333273 245.10595363 556.09776507 242.1875 553.21875 C239.59803119 550.59228878 237.21163036 547.83023542 234.8125 545.03125 C232.7890712 542.76361428 230.66346653 540.6342305 228.5 538.5 C225.73439592 535.77170593 223.08712969 533.01483166 220.5625 530.0625 C217.84380752 526.8896408 214.97248325 523.93661618 212 521 C208.41441301 517.45767801 205.05108338 513.82444339 201.77734375 509.99609375 C199.05022777 506.93333273 196.10595363 504.09776507 193.1875 501.21875 C190.59803119 498.59228878 188.21163036 495.83023542 185.8125 493.03125 C183.7890712 490.76361428 181.66346653 488.6342305 179.5 486.5 C176.0928121 483.13885518 172.92541826 479.66298797 169.8125 476.03125 C167.7890712 473.76361428 165.66346653 471.6342305 163.5 469.5 C160.73439592 466.77170593 158.08712969 464.01483166 155.5625 461.0625 C152.84380752 457.8896408 149.97248325 454.93661618 147 452 C143.41441301 448.45767801 140.05108338 444.82444339 136.77734375 440.99609375 C134.05022777 437.93333273 131.10595363 435.09776507 128.1875 432.21875 C125.59803119 429.59228878 123.21163036 426.83023542 120.8125 424.03125 C118.7890712 421.76361428 116.66346653 419.6342305 114.5 417.5 C111.0928121 414.13885518 107.92541826 410.66298797 104.8125 407.03125 C102.7890712 404.76361428 100.66346653 402.6342305 98.5 400.5 C95.73439592 397.77170593 93.08712969 395.01483166 90.5625 392.0625 C87.84380752 388.8896408 84.97248325 385.93661618 82 383 C78.41441301 379.45767801 75.05108338 375.82444339 71.77734375 371.99609375 C69.05022777 368.93333273 66.10595363 366.09776507 63.1875 363.21875 C60.59803119 360.59228878 58.21163036 357.83023542 55.8125 355.03125 C53.7890712 352.76361428 51.66346653 350.6342305 49.5 348.5 C46.73439592 345.77170593 44.08712969 343.01483166 41.5625 340.0625 C38.84380752 336.8896408 35.97248325 333.93661618 33 331 C29.41441301 327.45767801 26.05108338 323.82444339 22.77734375 319.99609375 C20.05022777 316.93333273 17.10595363 314.09776507 14.1875 311.21875 C11.59803119 308.59228878 9.21163036 305.83023542 6.8125 303.03125 C4.7890712 300.76361428 2.66346653 298.6342305 0.5 296.5 C-2.9071879 293.13885518 -6.07458174 289.66298797 -9.1875 286.03125 C-11.2109288 283.76361428 -13.33653347 281.6342305 -15.5 279.5 C-18.26560408 276.77170593 -20.91287031 274.01483166 -23.4375 271.0625 C-26.15619248 267.8896408 -29.02751675 264.93661618 -32 262 C-35.58558699 258.45767801 -38.94891662 254.82444339 -42.22265625 250.99609375 C-44.94977223 247.93333273 -47.89404637 245.09776507 -50.8125 242.21875 C-53.40196881 239.59228878 -55.78836964 236.83023542 -58.1875 234.03125 C-60.2109288 231.76361428 -62.33653347 229.6342305 -64.5 227.5 C-67.26560408 224.77170593 -69.91287031 222.01483166 -72.4375 219.0625 C-75.15619248 215.8896408 -78.02751675 212.93661618 -81 210 C-84.58558699 206.45767801 -87.94891662 202.82444339 -91.22265625 198.99609375 C-93.94977223 195.93333273 -96.89404637 193.09776507 -99.8125 190.21875 C-102.40196881 187.59228878 -104.78836964 184.83023542 -107.1875 182.03125 C-109.2109288 179.76361428 -111.33653347 177.6342305 -113.5 175.5 C-116.9071879 172.13885518 -120.07458174 168.66298797 -123.1875 165.03125 C-125.2109288 162.76361428 -127.33653347 160.6342305 -129.5 158.5 C-133.54839385 154.49971949 -137.31435102 150.3332359 -141 146 C-142.06864367 144.75228996 -143.13768126 143.50491724 -144.20703125 142.2578125 C-144.99750854 141.33572998 -144.99750854 141.33572998 -145.80395508 140.39501953 C-146.1986499 139.93466309 -146.59334473 139.47430664 -147 139 C-144.50434749 136.47483195 -142.00267549 133.95570627 -139.5 131.4375 C-138.80390625 130.73302734 -138.1078125 130.02855469 -137.390625 129.30273438 C-133.31522325 125.20846502 -129.14058638 121.31276057 -124.76367188 117.54321289 C-122.57140076 115.62497566 -120.52790391 113.59030096 -118.5 111.5 C-115.13885518 108.0928121 -111.66298797 104.92541826 -108.03125 101.8125 C-105.76361428 99.7890712 -103.6342305 97.66346653 -101.5 95.5 C-98.13885518 92.0928121 -94.66298797 88.92541826 -91.03125 85.8125 C-88.76361428 83.7890712 -86.6342305 81.66346653 -84.5 79.5 C-81.77170593 76.73439592 -79.01483166 74.08712969 -76.0625 71.5625 C-72.8896408 68.84380752 -69.93661618 65.97248325 -67 63 C-63.45767801 59.41441301 -59.82444339 56.05108338 -55.99609375 52.77734375 C-52.93333273 50.05022777 -50.09776507 47.10595363 -47.21875 44.1875 C-44.59228878 41.59803119 -41.83023542 39.21163036 -39.03125 36.8125 C-36.76361428 34.7890712 -34.6342305 32.66346653 -32.5 30.5 C-29.77170593 27.73439592 -27.01483166 25.08712969 -24.0625 22.5625 C-19.97920042 19.06368863 -16.24579878 15.26117901 -12.46875 11.4375 C-9.61398838 8.61887461 -6.64571863 5.97667818 -3.59375 3.375 C-2.34946955 2.30150314 -1.16203041 1.16203041 0 0 Z M-31.36328125 103.265625 C-32.34888196 104.25791228 -33.33183098 105.25283848 -34.3125 106.25 C-34.79912109 106.74113281 -35.28574219 107.23226563 -35.78710938 107.73828125 C-37.19292989 109.15734637 -38.59650306 110.57863676 -40 112 C-41.33222821 113.33443754 -42.6650822 114.66825302 -44 116 C-43.43152344 116.556875 -42.86304688 117.11375 -42.27734375 117.6875 C-37.89231939 122.02128034 -33.69274711 126.42274184 -29.6796875 131.1015625 C-27.4771278 133.59096719 -25.11647364 135.8945103 -22.74609375 138.22265625 C-20.93522357 140.06593574 -19.24678646 141.97822799 -17.5625 143.9375 C-15.14382221 146.74576347 -12.64100317 149.39970593 -10 152 C-6.75151164 155.19851162 -3.75455357 158.53635417 -0.7890625 161.99609375 C1.10139241 164.11356835 3.08971108 166.08438212 5.125 168.0625 C8.58154832 171.4585251 11.31450936 174.97176404 14 179 C8.13070036 184.95733913 2.29919822 190.86962636 -4.07421875 196.29296875 C-7.11661695 198.98978013 -9.92325809 201.91534396 -12.77734375 204.80859375 C-15.41715567 207.41129057 -18.19059699 209.81515457 -21.00390625 212.2265625 C-24.49167866 215.32528789 -27.74144373 218.66344637 -31 222 C-27.09489511 227.50719921 -22.90282356 232.35827355 -18 237 C-14.993182 235.66000502 -13.00237391 234.20154709 -10.75 231.8125 C-8.31966206 229.30476276 -5.84494342 226.95303763 -3.1875 224.6875 C0.02333755 221.92381971 3.02267165 219.01380404 6 216 C9.53247266 212.42438264 13.1543061 209.06863507 16.97265625 205.8046875 C20.81923304 202.38056712 24.39755425 198.6774967 28 195 C31.08865342 196.36421495 33.07849356 197.8770128 35.36328125 200.3515625 C36.31098389 201.36887451 36.31098389 201.36887451 37.27783203 202.40673828 C37.94927246 203.13876465 38.62071289 203.87079102 39.3125 204.625 C40.75389482 206.17709395 42.19530134 207.72917703 43.63671875 209.28125 C44.36552246 210.07015625 45.09432617 210.8590625 45.84521484 211.671875 C49.08644709 215.17384539 52.35683398 218.64819102 55.625 222.125 C60.42399165 227.24317194 65.21418994 232.36950369 70 237.5 C75.05748392 242.92136812 80.11944349 248.33851275 85.1875 253.75 C85.82365234 254.42998047 86.45980469 255.10996094 87.11523438 255.81054688 C88.00758789 256.7628418 88.00758789 256.7628418 88.91796875 257.734375 C89.44156982 258.29350586 89.9651709 258.85263672 90.50463867 259.42871094 C91.53565903 260.51208188 92.60350149 261.56117486 93.69873047 262.57958984 C94.12814941 263.0483252 94.55756836 263.51706055 95 264 C94.87274348 266.5960331 94.29362056 267.69181341 92.50390625 269.5703125 C91.86324219 270.08335937 91.22257812 270.59640625 90.5625 271.125 C87.19343809 273.93355608 84.07575726 276.87195012 81 280 C77.45767801 283.58558699 73.82444339 286.94891662 69.99609375 290.22265625 C66.94340691 292.94080207 64.11567162 295.87255032 61.25390625 298.7890625 C58.45383243 301.53575536 55.48462488 304.02995185 52.43359375 306.4921875 C50.65547727 308.01560067 50.65547727 308.01560067 51 311 C52.76599946 312.95801918 54.52534113 314.75933656 56.4375 316.5625 C61.89341317 321.78682635 61.89341317 321.78682635 63 324 C70.80441066 320.42441098 76.61779225 313.42351716 82.55859375 307.41015625 C85.27202727 304.73145468 88.10777023 302.25391882 91.00390625 299.77734375 C93.26132626 297.76731223 95.37735713 295.65167047 97.5 293.5 C105.72939181 285.18503393 105.72939181 285.18503393 110 282 C110.66 282 111.32 282 112 282 C113.48046875 283.50390625 113.48046875 283.50390625 115.1875 285.5625 C117.53279758 288.3253868 119.90829405 290.96679757 122.5 293.5 C124.93389732 295.89053167 127.21355559 298.35046262 129.4375 300.9375 C131.85617779 303.74576347 134.35899683 306.39970593 137 309 C140.25029983 312.20029522 143.24724245 315.54224576 146.21875 319 C148.70257428 321.78885533 151.36711437 324.37686983 154.02734375 326.99609375 C156.57337829 329.58246151 158.92021557 332.3153528 161.28515625 335.06640625 C162.96004299 336.95494597 164.69947587 338.73155648 166.5 340.5 C169.05107553 343.02215177 171.52722504 345.592393 173.9375 348.25 C174.52402344 348.89453125 175.11054687 349.5390625 175.71484375 350.203125 C177 352 177 352 177 355 C175.53125 356.796875 175.53125 356.796875 173.5 358.75 C172.76652344 359.45769531 172.03304687 360.16539062 171.27734375 360.89453125 C168.59213887 363.37707916 165.83999475 365.76955441 163.06640625 368.15234375 C160.78850522 370.18910592 158.64581412 372.32474075 156.5 374.5 C153.79196435 377.24500542 151.05830751 379.8727091 148.125 382.375 C142.78916349 386.94394503 137.92271025 391.99584785 133 397 C135.59459744 401.10612898 138.24354715 404.47167811 141.75 407.875 C142.54921875 408.65617187 143.3484375 409.43734375 144.171875 410.2421875 C144.77515625 410.82226562 145.3784375 411.40234375 146 412 C149.71268094 410.45872649 151.98115698 408.19156766 154.75 405.3125 C157.76713884 402.22909896 160.78141718 399.23858474 164.0625 396.4375 C167.83479173 393.21169721 171.28936298 389.72727808 174.7734375 386.1953125 C177.43646934 383.56965655 180.23255606 381.14020795 183.0703125 378.70703125 C186.18946136 375.94778419 189.09751222 372.98412025 192 370 C194.86497152 371.28948738 196.81344725 372.59502024 198.92578125 374.9140625 C199.4671875 375.501875 200.00859375 376.0896875 200.56640625 376.6953125 C201.14261719 377.33210938 201.71882813 377.96890625 202.3125 378.625 C203.568682 379.99248926 204.82520369 381.35966654 206.08203125 382.7265625 C206.72865723 383.43329102 207.3752832 384.14001953 208.04150391 384.86816406 C211.16741616 388.2707402 214.33459878 391.63420463 217.5 395 C222.34127678 400.15928038 227.17439681 405.32605902 232 410.5 C237.01771676 415.87791535 242.03704083 421.25431792 247.0625 426.625 C247.9915918 427.61983398 247.9915918 427.61983398 248.93945312 428.63476562 C249.52791016 429.26318359 250.11636719 429.89160156 250.72265625 430.5390625 C251.27840332 431.13364258 251.83415039 431.72822266 252.40673828 432.34082031 C253.87461642 433.86942893 255.39094203 435.32121149 256.93359375 436.7734375 C259 439 259 439 259 442 C257.56640625 443.5078125 257.56640625 443.5078125 255.5625 445.125 C252.37900964 447.78633056 249.40649817 450.53789925 246.5 453.5 C243.77170593 456.26560408 241.01483166 458.91287031 238.0625 461.4375 C233.97893697 464.93653711 230.24225379 468.73467029 226.4765625 472.5703125 C223.60030404 475.39213074 220.56385409 477.93989343 217.3984375 480.4296875 C215.55662974 482.14740629 215.55662974 482.14740629 216 486 C217.07660729 487.71396595 217.07660729 487.71396595 218.625 489.234375 C219.16640625 489.80800781 219.7078125 490.38164063 220.265625 490.97265625 C220.83796875 491.55917969 221.4103125 492.14570312 222 492.75 C222.57234375 493.35199219 223.1446875 493.95398437 223.734375 494.57421875 C225.14743146 496.05792804 226.57258342 497.53010078 228 499 C234.32861495 494.69654183 239.50962411 489.61174638 244.8527832 484.1784668 C248.48727346 480.48922699 252.18564038 476.98331324 256.14453125 473.640625 C258.37194943 471.6711184 260.4243465 469.56601395 262.5 467.4375 C266.38439418 463.49230661 270.48515708 460.18612737 275 457 C288.00960699 469.83353712 288.00960699 469.83353712 293.39453125 476.17578125 C295.80781466 478.91788186 298.4294709 481.43824828 301.03125 484 C303.55425459 486.56305228 305.87562817 489.27345824 308.21875 492 C310.70257428 494.78885533 313.36711437 497.37686983 316.02734375 499.99609375 C318.56827575 502.57727814 320.91106715 505.30373726 323.26953125 508.05078125 C325.5649527 510.63636884 328.02242212 513.03550217 330.48828125 515.45703125 C332.18081316 517.1845509 333.64008685 519.00012772 335 521 C339.12417063 519.3383196 342.06554039 516.37661982 345.25 513.375 C345.80429688 512.859375 346.35859375 512.34375 346.9296875 511.8125 C348.2902712 510.54574965 349.64565837 509.27342185 351 508 C349.66000502 504.993182 348.20154709 503.00237391 345.8125 500.75 C343.26329151 498.2797959 340.87180507 495.75845477 338.5625 493.0625 C336.14382221 490.25423653 333.64100317 487.60029407 331 485 C327.74970017 481.79970478 324.75275755 478.45775424 321.78125 475 C319.29742572 472.21114467 316.63288563 469.62313017 313.97265625 467.00390625 C311.42662171 464.41753849 309.07978443 461.6846472 306.71484375 458.93359375 C304.50806768 456.44531549 302.14951079 454.13772829 299.77734375 451.80859375 C296.69846012 448.6755759 293.85269265 445.33825735 291 442 C295.15968149 436.98410143 299.51865618 432.46920389 304.3125 428.0625 C305.72555001 426.75161417 307.13829989 425.44040478 308.55078125 424.12890625 C309.27861816 423.4548877 310.00645508 422.78086914 310.75634766 422.08642578 C313.02881153 419.97320748 315.28800211 417.84671529 317.54296875 415.71484375 C318.28828857 415.01029053 319.0336084 414.3057373 319.80151367 413.57983398 C321.22298933 412.23507539 322.64377296 410.88958473 324.0637207 409.54321289 C328.61338736 405.24806527 333.26333091 401.0878966 338 397 C336.71825282 394.18121988 335.38992385 392.14758504 333.1796875 389.984375 C332.37724609 389.19160156 332.37724609 389.19160156 331.55859375 388.3828125 C331.00300781 387.84398437 330.44742187 387.30515625 329.875 386.75 C329.31167969 386.19570312 328.74835938 385.64140625 328.16796875 385.0703125 C326.78313972 383.70895515 325.39216796 382.35385141 324 381 C318.6765307 385.48992608 313.55995394 390.15362584 308.5 394.9375 C307.77941406 395.61490234 307.05882812 396.29230469 306.31640625 396.99023438 C302.90108547 400.21101157 299.52251241 403.4576135 296.21484375 406.7890625 C293.90853414 409.11151166 291.56738609 411.32725679 289.0625 413.4375 C284.82750398 417.08407192 280.90306016 421.00351553 277 425 C274.02173799 423.67193785 272.0554954 422.26488767 269.85546875 419.8671875 C268.97556274 418.91767212 268.97556274 418.91767212 268.07788086 417.94897461 C267.45405518 417.26456299 266.83022949 416.58015137 266.1875 415.875 C264.83870036 414.41521794 263.48973748 412.9555867 262.140625 411.49609375 C261.45291016 410.74827637 260.76519531 410.00045898 260.05664062 409.22998047 C256.87287724 405.77787995 253.65428974 402.35879138 250.4375 398.9375 C245.61736425 393.79877588 240.8057072 388.6522172 236 383.5 C230.96239901 378.10035968 225.92176063 372.70358153 220.875 367.3125 C220.24722656 366.64089844 219.61945313 365.96929688 218.97265625 365.27734375 C218.38097656 364.64570312 217.78929687 364.0140625 217.1796875 363.36328125 C216.63022461 362.77240723 216.08076172 362.1815332 215.51464844 361.57275391 C214.24098685 360.25023167 212.88239011 359.01026711 211.5078125 357.79296875 C210 356 210 356 209.96484375 354.015625 C211.3749021 351.27000194 213.21160273 349.74557081 215.5625 347.75 C218.86590956 344.8835991 222.06581238 342.00108834 225.125 338.875 C227.64292003 336.31671251 230.21333257 333.89980342 232.9375 331.5625 C236.74140562 328.29456542 240.23991676 324.78192177 243.75390625 321.20703125 C246.49850053 318.51016904 249.3942172 316.04109502 252.37109375 313.60546875 C254.36038051 311.81772865 254.36038051 311.81772865 256 308 C251.71 303.71 247.42 299.42 243 295 C235.11567878 298.94216061 229.06087866 305.87214728 222.921875 312.109375 C221.05026358 313.95055372 219.119082 315.66806581 217.125 317.375 C213.02617192 320.89517 209.27162357 324.71262877 205.4765625 328.5546875 C202.12151837 331.86739669 198.60267763 334.96086971 195 338 C187.63748795 331.86457329 181.02573161 325.26630587 174.78125 318 C172.9257479 315.91662922 170.98776899 313.95718793 169 312 C165.74970017 308.79970478 162.75275755 305.45775424 159.78125 302 C157.29742572 299.21114467 154.63288563 296.62313017 151.97265625 294.00390625 C149.42662171 291.41753849 147.07978443 288.6846472 144.71484375 285.93359375 C143.03995701 284.04505403 141.30052413 282.26844352 139.5 280.5 C134.93615609 276.008271 130.55686999 271.33530498 127 266 C132.17941594 260.72506205 137.38495435 255.5822825 143.00390625 250.77734375 C146.06666727 248.05022777 148.90223493 245.10595363 151.78125 242.1875 C153.79430632 240.20279658 155.85446403 238.33903084 158 236.5 C162.57676281 232.57443992 166.77653385 228.29843892 171 224 C171.99889197 222.99889319 172.99842147 221.99841898 174 221 C173.16855469 220.16855469 172.33710937 219.33710937 171.48046875 218.48046875 C167.3203125 214.3203125 163.16015625 210.16015625 159 206 C158.0821875 206.92941406 157.164375 207.85882812 156.21875 208.81640625 C144.82139989 220.31322867 144.82139989 220.31322867 138.85546875 225.36328125 C135.83312884 228.02930319 133.05565761 230.93670448 130.2265625 233.8046875 C127.56353066 236.43034345 124.76744394 238.85979205 121.9296875 241.29296875 C118.81053864 244.05221581 115.90248778 247.01587975 113 250 C108.95121698 248.42600004 106.50297451 245.54506115 103.6875 242.375 C102.61533236 241.1907277 101.54237968 240.00716577 100.46875 238.82421875 C99.90414063 238.19950684 99.33953125 237.57479492 98.7578125 236.93115234 C95.77058668 233.64935287 92.72789281 230.41997182 89.6875 227.1875 C88.41009779 225.8268778 87.13275456 224.46620022 85.85546875 223.10546875 C85.21786621 222.42661621 84.58026367 221.74776367 83.92333984 221.04833984 C80.16122673 217.04172281 76.40309417 213.03137014 72.64550781 209.02050781 C69.41276225 205.5705489 66.1762096 202.12427919 62.93359375 198.68359375 C62.26457031 197.97267578 61.59554688 197.26175781 60.90625 196.52929688 C59.63797728 195.1817571 58.36853574 193.83531596 57.09765625 192.49023438 C46.73636288 181.47272576 46.73636288 181.47272576 45 178 C45.53109375 177.79761719 46.0621875 177.59523438 46.609375 177.38671875 C50.04217587 175.39546988 52.50896826 172.65533126 55.25 169.8125 C59.37999569 165.59977801 63.54194466 161.55704484 68.04296875 157.73828125 C71.36157727 154.790615 74.42322852 151.58475755 77.5390625 148.42578125 C80.31506949 145.6894315 83.2093086 143.15229565 86.2109375 140.66796875 C88.39958013 138.62746568 90.17566427 136.36681441 92 134 C91.22914063 133.24074219 90.45828125 132.48148438 89.6640625 131.69921875 C88.65090904 130.69544634 87.63789552 129.69153268 86.625 128.6875 C86.11710937 128.18798828 85.60921875 127.68847656 85.0859375 127.17382812 C82.77145867 124.87457613 80.81652517 122.72478775 79 120 C76.23664637 121.27103072 74.12860895 122.60303497 71.92578125 124.6953125 C71.34932861 125.23824951 70.77287598 125.78118652 70.17895508 126.34057617 C69.5630249 126.92943604 68.94709473 127.5182959 68.3125 128.125 C67.66112061 128.74028564 67.00974121 129.35557129 66.33862305 129.98950195 C64.94399691 131.30733842 63.55123081 132.62714559 62.16015625 133.94873047 C58.55456523 137.37257492 54.93285938 140.77928699 51.3125 144.1875 C50.60399902 144.85539551 49.89549805 145.52329102 49.16552734 146.21142578 C43.16208543 151.86490995 37.10076353 157.45171409 31 163 C25.77697034 158.67888525 21.10072597 154.09736277 16.5 149.125 C15.8085791 148.3839502 15.1171582 147.64290039 14.40478516 146.87939453 C12.97059579 145.34213402 11.53782029 143.80355326 10.10644531 142.26367188 C7.49083798 139.45283377 4.86314505 136.65350253 2.234375 133.85498047 C-0.23092547 131.22977212 -2.69211372 128.60072562 -5.15332031 125.97167969 C-7.03585846 123.96171431 -8.92025639 121.95350307 -10.8046875 119.9453125 C-21.94775089 108.05443157 -21.94775089 108.05443157 -26.86328125 102.22265625 C-27.23839844 101.81917969 -27.61351562 101.41570312 -28 101 C-29.42533255 100.88466085 -29.42533255 100.88466085 -31.36328125 103.265625 Z " fill="#000000" transform="translate(1226,1090)"/>
<path d="M0 0 C3.19363953 1.37859928 4.99361769 2.88108828 7.1875 5.5625 C9.83250684 8.6945959 12.57615084 11.62596087 15.5 14.5 C18.26560408 17.22829407 20.91287031 19.98516834 23.4375 22.9375 C26.15619248 26.1103592 29.02751675 29.06338382 32 32 C35.58558699 35.54232199 38.94891662 39.17555661 42.22265625 43.00390625 C44.94977223 46.06666727 47.89404637 48.90223493 50.8125 51.78125 C53.40196881 54.40771122 55.78836964 57.16976458 58.1875 59.96875 C60.2109288 62.23638572 62.33653347 64.3657695 64.5 66.5 C67.9071879 69.86114482 71.07458174 73.33701203 74.1875 76.96875 C76.2109288 79.23638572 78.33653347 81.3657695 80.5 83.5 C83.26560408 86.22829407 85.91287031 88.98516834 88.4375 91.9375 C91.15619248 95.1103592 94.02751675 98.06338382 97 101 C100.58558699 104.54232199 103.94891662 108.17555661 107.22265625 112.00390625 C109.94977223 115.06666727 112.89404637 117.90223493 115.8125 120.78125 C118.40196881 123.40771122 120.78836964 126.16976458 123.1875 128.96875 C125.2109288 131.23638572 127.33653347 133.3657695 129.5 135.5 C132.9071879 138.86114482 136.07458174 142.33701203 139.1875 145.96875 C141.2109288 148.23638572 143.33653347 150.3657695 145.5 152.5 C148.26560408 155.22829407 150.91287031 157.98516834 153.4375 160.9375 C156.15619248 164.1103592 159.02751675 167.06338382 162 170 C165.58558699 173.54232199 168.94891662 177.17555661 172.22265625 181.00390625 C174.94977223 184.06666727 177.89404637 186.90223493 180.8125 189.78125 C183.40196881 192.40771122 185.78836964 195.16976458 188.1875 197.96875 C190.2109288 200.23638572 192.33653347 202.3657695 194.5 204.5 C197.26560408 207.22829407 199.91287031 209.98516834 202.4375 212.9375 C205.15619248 216.1103592 208.02751675 219.06338382 211 222 C214.58558699 225.54232199 217.94891662 229.17555661 221.22265625 233.00390625 C223.94977223 236.06666727 226.89404637 238.90223493 229.8125 241.78125 C232.40196881 244.40771122 234.78836964 247.16976458 237.1875 249.96875 C239.2109288 252.23638572 241.33653347 254.3657695 243.5 256.5 C246.9071879 259.86114482 250.07458174 263.33701203 253.1875 266.96875 C255.2109288 269.23638572 257.33653347 271.3657695 259.5 273.5 C262.26560408 276.22829407 264.91287031 278.98516834 267.4375 281.9375 C270.15619248 285.1103592 273.02751675 288.06338382 276 291 C279.58558699 294.54232199 282.94891662 298.17555661 286.22265625 302.00390625 C288.94977223 305.06666727 291.89404637 307.90223493 294.8125 310.78125 C297.40196881 313.40771122 299.78836964 316.16976458 302.1875 318.96875 C304.2109288 321.23638572 306.33653347 323.3657695 308.5 325.5 C311.9071879 328.86114482 315.07458174 332.33701203 318.1875 335.96875 C320.2109288 338.23638572 322.33653347 340.3657695 324.5 342.5 C327.26560408 345.22829407 329.91287031 347.98516834 332.4375 350.9375 C335.15619248 354.1103592 338.02751675 357.06338382 341 360 C344.58558699 363.54232199 347.94891662 367.17555661 351.22265625 371.00390625 C353.94977223 374.06666727 356.89404637 376.90223493 359.8125 379.78125 C362.40196881 382.40771122 364.78836964 385.16976458 367.1875 387.96875 C369.2109288 390.23638572 371.33653347 392.3657695 373.5 394.5 C376.26560408 397.22829407 378.91287031 399.98516834 381.4375 402.9375 C384.15619248 406.1103592 387.02751675 409.06338382 390 412 C393.58558699 415.54232199 396.94891662 419.17555661 400.22265625 423.00390625 C402.94977223 426.06666727 405.89404637 428.90223493 408.8125 431.78125 C411.40196881 434.40771122 413.78836964 437.16976458 416.1875 439.96875 C418.2109288 442.23638572 420.33653347 444.3657695 422.5 446.5 C425.9071879 449.86114482 429.07458174 453.33701203 432.1875 456.96875 C434.92532599 460.03700326 437.8742037 462.88270348 440.80078125 465.76953125 C443.44941052 468.45579646 445.9044123 471.27450756 448.359375 474.13671875 C450.78335709 476.88966984 453.37509926 479.43912123 456 482 C454.64136333 485.07126369 453.14597449 487.05659798 450.68359375 489.328125 C450.01070312 489.95460938 449.3378125 490.58109375 448.64453125 491.2265625 C447.91621094 491.89429688 447.18789063 492.56203125 446.4375 493.25 C444.88397545 494.69255851 443.33059395 496.13527109 441.77734375 497.578125 C440.98183105 498.31353516 440.18631836 499.04894531 439.36669922 499.80664062 C435.723898 503.18263878 432.112658 506.59181616 428.5 510 C427.08350564 511.33351638 425.6668384 512.66684915 424.25 514 C423.198125 514.99 423.198125 514.99 422.125 516 C415.75 522 415.75 522 413.62255859 524.00219727 C412.21389599 525.32806408 410.80536612 526.65407191 409.39697266 527.98022461 C405.73395086 531.42899739 402.06826679 534.87487718 398.3984375 538.31640625 C397.26245117 539.3827832 397.26245117 539.3827832 396.10351562 540.47070312 C394.6681824 541.81797909 393.23204669 543.16440089 391.79492188 544.50976562 C388.56344081 547.54463057 385.37365039 550.60787896 382.25 553.75390625 C379.95218691 556.06763577 377.62359212 558.27618262 375.125 560.375 C372.1153247 562.96634205 369.28911384 565.67254783 366.5 568.5 C363.13885518 571.9071879 359.66298797 575.07458174 356.03125 578.1875 C353.76361428 580.2109288 351.6342305 582.33653347 349.5 584.5 C346.13885518 587.9071879 342.66298797 591.07458174 339.03125 594.1875 C336.76361428 596.2109288 334.6342305 598.33653347 332.5 600.5 C329.77170593 603.26560408 327.01483166 605.91287031 324.0625 608.4375 C319.10582137 612.68322069 314.56976002 617.34596161 310 622 C305.66728605 620.33438247 302.86476823 617.12551937 299.6875 613.875 C299.10645508 613.28750977 298.52541016 612.70001953 297.92675781 612.09472656 C294.36809123 608.47226315 290.95833684 604.76279291 287.671875 600.890625 C284.98857156 597.85623513 282.07003379 595.06233063 279.1875 592.21875 C276.59803119 589.59228878 274.21163036 586.83023542 271.8125 584.03125 C269.7890712 581.76361428 267.66346653 579.6342305 265.5 577.5 C262.0928121 574.13885518 258.92541826 570.66298797 255.8125 567.03125 C253.7890712 564.76361428 251.66346653 562.6342305 249.5 560.5 C246.73439592 557.77170593 244.08712969 555.01483166 241.5625 552.0625 C238.84380752 548.8896408 235.97248325 545.93661618 233 543 C229.41441301 539.45767801 226.05108338 535.82444339 222.77734375 531.99609375 C220.05022777 528.93333273 217.10595363 526.09776507 214.1875 523.21875 C211.59803119 520.59228878 209.21163036 517.83023542 206.8125 515.03125 C204.7890712 512.76361428 202.66346653 510.6342305 200.5 508.5 C197.0928121 505.13885518 193.92541826 501.66298797 190.8125 498.03125 C188.7890712 495.76361428 186.66346653 493.6342305 184.5 491.5 C181.73439592 488.77170593 179.08712969 486.01483166 176.5625 483.0625 C173.84380752 479.8896408 170.97248325 476.93661618 168 474 C164.41441301 470.45767801 161.05108338 466.82444339 157.77734375 462.99609375 C155.05022777 459.93333273 152.10595363 457.09776507 149.1875 454.21875 C146.59803119 451.59228878 144.21163036 448.83023542 141.8125 446.03125 C139.7890712 443.76361428 137.66346653 441.6342305 135.5 439.5 C132.73439592 436.77170593 130.08712969 434.01483166 127.5625 431.0625 C124.84380752 427.8896408 121.97248325 424.93661618 119 422 C115.41441301 418.45767801 112.05108338 414.82444339 108.77734375 410.99609375 C106.05022777 407.93333273 103.10595363 405.09776507 100.1875 402.21875 C97.59803119 399.59228878 95.21163036 396.83023542 92.8125 394.03125 C90.7890712 391.76361428 88.66346653 389.6342305 86.5 387.5 C83.0928121 384.13885518 79.92541826 380.66298797 76.8125 377.03125 C74.7890712 374.76361428 72.66346653 372.6342305 70.5 370.5 C67.73439592 367.77170593 65.08712969 365.01483166 62.5625 362.0625 C59.84380752 358.8896408 56.97248325 355.93661618 54 353 C50.41441301 349.45767801 47.05108338 345.82444339 43.77734375 341.99609375 C41.05022777 338.93333273 38.10595363 336.09776507 35.1875 333.21875 C32.59803119 330.59228878 30.21163036 327.83023542 27.8125 325.03125 C25.7890712 322.76361428 23.66346653 320.6342305 21.5 318.5 C18.0928121 315.13885518 14.92541826 311.66298797 11.8125 308.03125 C9.7890712 305.76361428 7.66346653 303.6342305 5.5 301.5 C2.73439592 298.77170593 0.08712969 296.01483166 -2.4375 293.0625 C-5.15619248 289.8896408 -8.02751675 286.93661618 -11 284 C-14.58558699 280.45767801 -17.94891662 276.82444339 -21.22265625 272.99609375 C-23.94977223 269.93333273 -26.89404637 267.09776507 -29.8125 264.21875 C-32.40196881 261.59228878 -34.78836964 258.83023542 -37.1875 256.03125 C-39.2109288 253.76361428 -41.33653347 251.6342305 -43.5 249.5 C-46.26560408 246.77170593 -48.91287031 244.01483166 -51.4375 241.0625 C-54.15619248 237.8896408 -57.02751675 234.93661618 -60 232 C-63.58558699 228.45767801 -66.94891662 224.82444339 -70.22265625 220.99609375 C-72.94977223 217.93333273 -75.89404637 215.09776507 -78.8125 212.21875 C-81.40196881 209.59228878 -83.78836964 206.83023542 -86.1875 204.03125 C-88.2109288 201.76361428 -90.33653347 199.6342305 -92.5 197.5 C-95.9071879 194.13885518 -99.07458174 190.66298797 -102.1875 187.03125 C-104.2109288 184.76361428 -106.33653347 182.6342305 -108.5 180.5 C-111.26560408 177.77170593 -113.91287031 175.01483166 -116.4375 172.0625 C-119.15619248 168.8896408 -122.02751675 165.93661618 -125 163 C-128.57823606 159.46494024 -131.94454429 155.85033493 -135.19140625 152.01171875 C-138.05201055 148.82983708 -141.21899602 145.96420759 -144.375 143.078125 C-146 141 -146 141 -146.03515625 139.03515625 C-144.60259384 136.2186845 -142.70477922 134.38554932 -140.4375 132.1875 C-139.53 131.30578125 -138.6225 130.4240625 -137.6875 129.515625 C-134.85007744 126.85966551 -131.94930987 124.30272976 -128.99609375 121.77734375 C-126.73867374 119.76731223 -124.62264287 117.65167047 -122.5 115.5 C-119.77170593 112.73439592 -117.01483166 110.08712969 -114.0625 107.5625 C-110.8896408 104.84380752 -107.93661618 101.97248325 -105 99 C-101.45767801 95.41441301 -97.82444339 92.05108338 -93.99609375 88.77734375 C-90.93333273 86.05022777 -88.09776507 83.10595363 -85.21875 80.1875 C-82.59228878 77.59803119 -79.83023542 75.21163036 -77.03125 72.8125 C-74.76361428 70.7890712 -72.6342305 68.66346653 -70.5 66.5 C-67.77170593 63.73439592 -65.01483166 61.08712969 -62.0625 58.5625 C-58.8896408 55.84380752 -55.93661618 52.97248325 -53 50 C-49.45767801 46.41441301 -45.82444339 43.05108338 -41.99609375 39.77734375 C-38.93333273 37.05022777 -36.09776507 34.10595363 -33.21875 31.1875 C-30.59228878 28.59803119 -27.83023542 26.21163036 -25.03125 23.8125 C-21.96299674 21.07467401 -19.11729652 18.1257963 -16.23046875 15.19921875 C-13.54420354 12.55058948 -10.72549244 10.0955877 -7.86328125 7.640625 C-5.11033016 5.21664291 -2.56087877 2.62490074 0 0 Z M-30.39868164 102.28515625 C-30.97996826 102.87167969 -31.56125488 103.45820313 -32.16015625 104.0625 C-33.1027832 105.00996094 -33.1027832 105.00996094 -34.06445312 105.9765625 C-35.05348633 106.97816406 -35.05348633 106.97816406 -36.0625 108 C-36.72572266 108.66773438 -37.38894531 109.33546875 -38.07226562 110.0234375 C-39.71708714 111.68009226 -41.35953887 113.33902916 -43 115 C-41.28974534 118.66434951 -39.24002076 120.9345589 -36.3125 123.75 C-32.566925 127.4148514 -29.04938216 131.15774778 -25.64453125 135.13671875 C-23.4560463 137.61630858 -21.10455987 139.9062118 -18.74609375 142.22265625 C-16.93522357 144.06593574 -15.24678646 145.97822799 -13.5625 147.9375 C-11.14382221 150.74576347 -8.64100317 153.39970593 -6 156 C-2.75673132 159.19337224 0.23678944 162.52431393 3.1953125 165.98046875 C5.7871995 168.88091373 8.58181575 171.55759685 11.3984375 174.23828125 C13 176 13 176 14 179 C-0.94890511 194.13868613 -0.94890511 194.13868613 -7.1796875 199.3984375 C-10.19080701 202.04770574 -12.95276271 204.9442711 -15.765625 207.80078125 C-17.85941277 209.8616248 -20.01395215 211.78349685 -22.25 213.6875 C-25.58341411 216.54090248 -28.30214676 219.54337554 -31 223 C-30.48050781 223.50789063 -29.96101562 224.01578125 -29.42578125 224.5390625 C-25.3775629 228.53490094 -21.55349109 232.55813614 -18 237 C-15.23664637 235.72896928 -13.12860895 234.39696503 -10.92578125 232.3046875 C-10.34924805 231.76166992 -9.77271484 231.21865234 -9.17871094 230.65917969 C-8.56286133 230.07040039 -7.94701172 229.48162109 -7.3125 228.875 C-6.6618457 228.26043945 -6.01119141 227.64587891 -5.34082031 227.01269531 C-3.94691491 225.6956037 -2.55488266 224.37652737 -1.16455078 223.05566406 C2.46371104 219.60992026 6.10726345 216.18042732 9.75 212.75 C10.4610791 212.07952637 11.1721582 211.40905273 11.90478516 210.71826172 C17.54216787 205.41010738 23.24022716 200.17508747 29 195 C34.22303281 199.32111735 38.89925046 203.90265808 43.5 208.875 C44.192146 209.6167749 44.88429199 210.3585498 45.59741211 211.12280273 C47.03234853 212.66078197 48.4658572 214.20009451 49.89794922 215.74072266 C52.49517146 218.53220867 55.10365323 221.31298189 57.71337891 224.09277344 C59.56931853 226.06976326 61.42355102 228.04834084 63.27734375 230.02734375 C66.4255211 233.38766467 69.57613976 236.74568319 72.72827148 240.10229492 C73.98083885 241.43805508 75.23168856 242.77542824 76.48071289 244.11450195 C79.57814863 247.43391717 82.69712 250.72632132 85.8671875 253.9765625 C86.47868652 254.61190918 87.09018555 255.24725586 87.72021484 255.90185547 C88.87976744 257.10594506 90.04897421 258.30083462 91.22900391 259.48486328 C92.78125 261.109375 92.78125 261.109375 95 264 C94.69800163 267.22131598 93.57844631 268.765717 91.21875 270.890625 C90.63254883 271.42719727 90.04634766 271.96376953 89.44238281 272.51660156 C88.80139648 273.08862305 88.16041016 273.66064453 87.5 274.25 C86.12962565 275.49936118 84.75985751 276.74938754 83.390625 278 C82.67197266 278.65226563 81.95332031 279.30453125 81.21289062 279.9765625 C77.5165616 283.35643617 73.88732778 286.80690839 70.25 290.25 C63.89936131 296.24146735 57.4945417 302.16473143 51 308 C51.57691478 311.16854747 52.41646887 312.78226459 54.72265625 315.015625 C55.26083984 315.54414062 55.79902344 316.07265625 56.35351562 316.6171875 C56.91748047 317.15601563 57.48144531 317.69484375 58.0625 318.25 C58.63033203 318.80429687 59.19816406 319.35859375 59.78320312 319.9296875 C61.18212469 321.29334214 62.59019114 322.64760417 64 324 C68.34922858 322.34264833 71.09135045 319.08845903 74.25 315.8125 C78.37999569 311.59977801 82.54194466 307.55704484 87.04296875 303.73828125 C90.35946738 300.79248906 93.41893006 297.58823259 96.53515625 294.43359375 C99.35631683 291.64820065 102.28846741 289.03881788 105.30859375 286.47265625 C106.94783789 285.04541597 108.48225476 283.55487662 110 282 C113.87478433 283.555246 116.00524882 285.96399983 118.75 289.0625 C119.72659202 290.1521835 120.70453879 291.24065385 121.68359375 292.328125 C122.2132373 292.91787109 122.74288086 293.50761719 123.28857422 294.11523438 C126.41554696 297.55891905 129.6176874 300.93187566 132.8125 304.3125 C138.48204925 310.32255669 144.1351792 316.34722442 149.76733398 322.39233398 C152.81301877 325.66024916 155.8646404 328.92233315 158.92578125 332.17578125 C165.37906565 339.03606527 171.81926604 345.89116861 178 353 C172.16676471 359.97142754 165.98706481 366.18874342 159.1015625 372.1171875 C156.81334889 374.16722274 154.65739418 376.31295092 152.5 378.5 C149.10610775 381.94054369 145.59678657 385.14868902 141.9296875 388.29296875 C138.81053864 391.05221581 135.90248778 394.01587975 133 397 C137.29785078 402.03163018 141.63425542 407.02718443 146 412 C149.006818 410.66000502 150.99762609 409.20154709 153.25 406.8125 C155.70026592 404.28403411 158.19832051 401.91244124 160.875 399.625 C163.8846753 397.03365795 166.71088616 394.32745217 169.5 391.5 C172.85420052 388.09985152 176.31864914 384.93538169 179.94921875 381.8359375 C183.13107354 378.98741988 186.06686708 375.90362553 189.01953125 372.8203125 C191 371 191 371 194 370 C199.29681757 375.20089934 204.4630811 380.42867227 209.2890625 386.0703125 C211.74573119 388.84107582 214.39359977 391.402929 217.03125 394 C219.55425459 396.56305228 221.87562817 399.27345824 224.21875 402 C226.70257428 404.78885533 229.36711437 407.37686983 232.02734375 409.99609375 C234.57337829 412.58246151 236.92021557 415.3153528 239.28515625 418.06640625 C241.49681322 420.56018803 243.86105737 422.87254398 246.23828125 425.20703125 C248.75675665 427.77018027 251.08578808 430.48255985 253.41796875 433.21484375 C255.07629841 435.15358442 255.07629841 435.15358442 257.5 437.25 C259 439 259 439 258.94140625 440.78125 C257.55585844 444.04677347 255.06651613 445.98042588 252.4375 448.25 C251.33590934 449.22766986 250.23565168 450.20684371 249.13671875 451.1875 C248.59837402 451.66574219 248.0600293 452.14398437 247.50537109 452.63671875 C245.51489793 454.43931397 243.62783583 456.33093424 241.75 458.25 C238.65901543 461.39196988 235.41679452 464.27477563 232.07421875 467.14453125 C228.95594998 469.93394305 226.05811485 472.93241389 223.12109375 475.91015625 C220.53616671 478.45699965 217.83912702 480.74325801 215 483 C216.57556235 486.84938529 219.04353587 489.24588522 222 492.125 C222.886875 492.99382812 223.77375 493.86265625 224.6875 494.7578125 C225.450625 495.49773437 226.21375 496.23765625 227 497 C227.66 497.66 228.32 498.32 229 499 C233.52842489 495.17993208 237.83569848 491.21587182 242 487 C245.54232199 483.41441301 249.17555661 480.05108338 253.00390625 476.77734375 C255.26132626 474.76731223 257.37735713 472.65167047 259.5 470.5 C270.27008929 459.61830357 270.27008929 459.61830357 276 457 C276.62003906 457.680625 277.24007813 458.36125 277.87890625 459.0625 C285.20632585 467.08319802 292.62074445 475.01912047 300.06054688 482.93554688 C302.58781165 485.62569679 305.11228433 488.31845542 307.63623047 491.01171875 C308.87431786 492.3325183 310.1129211 493.6528345 311.35205078 494.97265625 C314.61232519 498.44617161 317.86325039 501.92786638 321.1015625 505.421875 C321.77509766 506.14632813 322.44863281 506.87078125 323.14257812 507.6171875 C324.42790914 509.00002638 325.71062829 510.38529938 326.99023438 511.7734375 C330.14049188 515.15691849 333.28142881 518.22159586 337 521 C339.17923634 519.09616166 341.34277304 517.17849812 343.5 515.25 C344.12003906 514.71117187 344.74007813 514.17234375 345.37890625 513.6171875 C345.96542969 513.08867188 346.55195312 512.56015625 347.15625 512.015625 C347.70087891 511.53383789 348.24550781 511.05205078 348.80664062 510.55566406 C350.4057674 508.79781842 350.4057674 508.79781842 350 505 C348.97579784 503.35262972 348.97579784 503.35262972 347.46484375 501.890625 C346.91054688 501.30925781 346.35625 500.72789062 345.78515625 500.12890625 C345.17542969 499.50886719 344.56570313 498.88882812 343.9375 498.25 C342.64435663 496.90120906 341.35139378 495.55224503 340.05859375 494.203125 C339.38683105 493.50896484 338.71506836 492.81480469 338.02294922 492.09960938 C334.81217239 488.76715937 331.65856519 485.3818395 328.5 482 C327.23982155 480.6560266 325.97940499 479.31227641 324.71875 477.96875 C322.29930068 475.38800406 319.88245837 472.80486611 317.46875 470.21875 C316.89390869 469.60298096 316.31906738 468.98721191 315.72680664 468.3527832 C314.5837126 467.12629647 313.44224802 465.89828886 312.30249023 464.66870117 C309.16078241 461.28515126 305.98217632 457.94575658 302.75390625 454.64453125 C302.05458984 453.92136719 301.35527344 453.19820312 300.63476562 452.453125 C299.27771744 451.05131086 297.91082557 449.65894393 296.53320312 448.27734375 C295.92541016 447.64570312 295.31761719 447.0140625 294.69140625 446.36328125 C293.87458374 445.53244019 293.87458374 445.53244019 293.04125977 444.68481445 C292 443 292 443 292.12231445 441.00390625 C293.17967641 438.58976801 294.40109684 437.34361678 296.3515625 435.57421875 C297.03863281 434.94193359 297.72570312 434.30964844 298.43359375 433.65820312 C299.15675781 433.00787109 299.87992188 432.35753906 300.625 431.6875 C302.03492445 430.40091149 303.4437859 429.11315707 304.8515625 427.82421875 C305.89207764 426.87482422 305.89207764 426.87482422 306.95361328 425.90625 C309.5349211 423.50171034 312.01414921 421.00598601 314.49462891 418.49829102 C316.21771881 416.78330516 318.01378316 415.18842215 319.875 413.625 C323.76528038 410.27860348 327.34345718 406.67514549 330.9453125 403.0234375 C333.17004622 400.83254004 335.49221261 398.86061645 338 397 C336.63107063 393.90296672 335.07882641 391.88238392 332.625 389.5625 C329.83854727 386.86330571 327.34766619 384.09891937 325 381 C322.08165783 382.31483573 320.05079071 383.71633276 317.828125 386.01171875 C316.96127075 386.89597534 316.96127075 386.89597534 316.0769043 387.7980957 C315.47402588 388.42159912 314.87114746 389.04510254 314.25 389.6875 C309.91960397 394.09822285 305.57620355 398.3672648 300.85546875 402.36328125 C297.83587853 405.02687768 295.0608285 407.93143593 292.234375 410.796875 C289.5248638 413.46849093 286.68354774 415.94901604 283.796875 418.42578125 C281.41401353 420.51337511 279.20473601 422.72636599 277 425 C273.56307399 423.54767065 271.66739132 421.75617828 269.25 418.9375 C265.05308618 414.15577031 260.74520623 409.49889264 256.375 404.875 C254.97783878 403.3945556 253.58070363 401.9140866 252.18359375 400.43359375 C251.4860498 399.6947998 250.78850586 398.95600586 250.06982422 398.19482422 C246.23409955 394.12745399 242.41282493 390.04655049 238.59106445 385.96606445 C235.40043852 382.55972474 232.20702014 379.15609577 229.0078125 375.7578125 C222.57564864 368.92077747 216.16010263 362.08510207 210 355 C216.67778427 346.91636641 224.03797781 339.58925439 232.00390625 332.77734375 C235.0611837 330.0551104 237.89190231 327.11648524 240.765625 324.203125 C243.4751362 321.53150907 246.31645226 319.05098396 249.203125 316.57421875 C251.58598647 314.48662489 253.79526399 312.27363401 256 310 C254.3383196 305.87582937 251.37661982 302.93445961 248.375 299.75 C247.6015625 298.91855469 247.6015625 298.91855469 246.8125 298.0703125 C245.54574965 296.7097288 244.27342185 295.35434163 243 294 C234.74601501 300.9979438 226.74846505 308.17611789 219.1484375 315.8828125 C216.54878837 318.44464855 213.81245777 320.80568848 211.0390625 323.17578125 C208.71496227 325.25500502 206.55240321 327.45547965 204.375 329.6875 C201.11477359 332.99857916 197.99664432 335.64300463 194 338 C188.70318243 332.79910066 183.5369189 327.57132773 178.7109375 321.9296875 C176.25548723 319.16029838 173.60903661 316.59964876 170.97265625 314.00390625 C168.42662171 311.41753849 166.07978443 308.6846472 163.71484375 305.93359375 C162.03995701 304.04505403 160.30052413 302.26844352 158.5 300.5 C156.06610268 298.10946833 153.78644441 295.64953738 151.5625 293.0625 C148.5256156 289.53645301 145.29511119 286.27507079 141.98046875 283.01171875 C139.39547857 280.38593977 137.0009427 277.62122235 134.61328125 274.81640625 C133.15225115 273.17142079 131.63234585 271.72046032 130 270.25 C129.01 269.13625 129.01 269.13625 128 268 C128.33002142 264.78469419 129.42167708 263.23417189 131.78125 261.109375 C132.36777344 260.57256104 132.95429687 260.03574707 133.55859375 259.48266602 C134.19925781 258.91088623 134.83992187 258.33910645 135.5 257.75 C136.86510349 256.50447611 138.22966529 255.25835832 139.59375 254.01171875 C140.31175781 253.35993652 141.02976562 252.7081543 141.76953125 252.03662109 C145.5500378 248.58467433 149.27382883 245.07287611 153 241.5625 C153.69287109 240.91313477 154.38574219 240.26376953 155.09960938 239.59472656 C158.94392055 235.98211206 162.71757489 232.31600984 166.41430664 228.55224609 C168.81567811 226.20152711 171.38314911 224.10624584 174 222 C169.70214922 216.96836982 165.36574458 211.97281557 161 207 C155.74392501 208.4748685 152.83740943 211.85952208 149.1875 215.6875 C147.93939412 216.96799477 146.68941051 218.24666217 145.4375 219.5234375 C144.84195313 220.13155273 144.24640625 220.73966797 143.6328125 221.36621094 C141.15783924 223.84266445 138.52570191 226.10297727 135.85546875 228.36328125 C132.83725339 231.0256649 130.0634138 233.92880156 127.23828125 236.79296875 C124.5039389 239.48913529 121.64044189 241.99785783 118.72265625 244.4921875 C117.29590658 245.74099787 115.94821151 247.07946714 114.625 248.4375 C113 250 113 250 111 250 C109.5546875 248.53125 109.5546875 248.53125 107.875 246.5 C105.35742098 243.53322639 102.77831024 240.72425751 100 238 C96.74970017 234.79970478 93.75275755 231.45775424 90.78125 228 C88.9257479 225.91662922 86.98776899 223.95718793 85 222 C81.74970017 218.79970478 78.75275755 215.45775424 75.78125 212 C73.29742572 209.21114467 70.63288563 206.62313017 67.97265625 204.00390625 C65.42712267 201.41804739 63.08015403 198.68677617 60.71875 195.93359375 C59.02950053 194.03318809 57.26474225 192.26713559 55.4375 190.5 C51.84557165 186.98121046 48.90358436 183.09479846 46 179 C58.78484354 166.03975464 58.78484354 166.03975464 65.109375 160.671875 C68.14239108 157.9897864 70.93508434 155.07266751 73.77734375 152.19140625 C76.41715567 149.58870943 79.19059699 147.18484543 82.00390625 144.7734375 C85.49167866 141.67471211 88.74144373 138.33655363 92 135 C87.70214922 129.96836982 83.36574458 124.97281557 79 120 C75.993182 121.33999498 74.00237391 122.79845291 71.75 125.1875 C69.29973408 127.71596589 66.80167949 130.08755876 64.125 132.375 C61.1153247 134.96634205 58.28911384 137.67254783 55.5 140.5 C52.16703462 143.87854439 48.72504141 147.01866446 45.1171875 150.09765625 C41.64453717 153.21791587 38.43512538 156.59803296 35.19921875 159.9609375 C33 162 33 162 30 163 C25.36273805 158.47114157 20.93997639 153.84854397 16.71484375 148.93359375 C15.03995701 147.04505403 13.30052413 145.26844352 11.5 143.5 C9.06610268 141.10946833 6.78644441 138.64953738 4.5625 136.0625 C2.14382221 133.25423653 -0.35899683 130.60029407 -3 128 C-6.24899595 124.8009886 -9.24506535 121.46075537 -12.21484375 118.00390625 C-14.71303974 115.19958558 -17.39224182 112.59602214 -20.0703125 109.96484375 C-21.95652803 108.04426397 -23.70528327 106.0595974 -25.4375 104 C-26.283125 103.01 -27.12875 102.02 -28 101 C-29.19384972 100.88723477 -29.19384972 100.88723477 -30.39868164 102.28515625 Z " fill="#000000" transform="translate(550,375)"/>
<path d="M0 0 C8.56272589 6.89084801 16.21384484 15.10669497 23.29296875 23.49609375 C26.21598359 26.8024548 29.41255374 29.84104574 32.55078125 32.94140625 C35.22948282 35.65483977 37.70701868 38.49058273 40.18359375 41.38671875 C42.19362527 43.64413876 44.30926703 45.76016963 46.4609375 47.8828125 C49.22654158 50.61110657 51.87380781 53.36798084 54.3984375 56.3203125 C57.11712998 59.4931717 59.98845425 62.44619632 62.9609375 65.3828125 C66.54652449 68.92513449 69.90985412 72.55836911 73.18359375 76.38671875 C75.90826843 79.44673801 78.84971822 82.27988094 81.765625 85.15625 C84.40337719 87.83155027 86.84467351 90.63844989 89.28125 93.49609375 C90.92494367 95.34238222 92.65673146 97.00737751 94.4609375 98.6953125 C104.60150995 108.72194593 109.96265027 121.82902958 110.2734375 135.9453125 C110.13821251 151.96947427 103.05410768 164.35890628 91.9609375 175.3828125 C87.42864762 179.77586752 82.79560887 184.0606245 78.16064453 188.34472656 C74.38927302 191.83900063 70.64385535 195.36076794 66.8984375 198.8828125 C66.20878906 199.52879395 65.51914063 200.17477539 64.80859375 200.84033203 C61.55824805 203.89385476 58.34936012 206.97577944 55.20703125 210.140625 C52.91053294 212.45304639 50.58311107 214.66018671 48.0859375 216.7578125 C45.0762622 219.34915455 42.25005134 222.05536033 39.4609375 224.8828125 C36.73264343 227.64841658 33.97576916 230.29568281 31.0234375 232.8203125 C27.8505783 235.53900498 24.89755368 238.41032925 21.9609375 241.3828125 C18.43987427 244.94681552 14.82907742 248.28585418 11.0234375 251.5390625 C7.67057901 254.53631478 4.56199994 257.77440884 1.40234375 260.97265625 C-1.31108977 263.65135782 -4.14683273 266.12889368 -7.04296875 268.60546875 C-9.30038876 270.61550027 -11.41641963 272.73114203 -13.5390625 274.8828125 C-16.26735657 277.64841658 -19.02423084 280.29568281 -21.9765625 282.8203125 C-25.1494217 285.53900498 -28.10244632 288.41032925 -31.0390625 291.3828125 C-34.56012573 294.94681552 -38.17092258 298.28585418 -41.9765625 301.5390625 C-45.32942099 304.53631478 -48.43800006 307.77440884 -51.59765625 310.97265625 C-54.31108977 313.65135782 -57.14683273 316.12889368 -60.04296875 318.60546875 C-62.30038876 320.61550027 -64.41641963 322.73114203 -66.5390625 324.8828125 C-69.26735657 327.64841658 -72.02423084 330.29568281 -74.9765625 332.8203125 C-78.1494217 335.53900498 -81.10244632 338.41032925 -84.0390625 341.3828125 C-87.56012573 344.94681552 -91.17092258 348.28585418 -94.9765625 351.5390625 C-97.42830939 353.73077563 -99.72791823 356.04348354 -102.0390625 358.3828125 C-105.56012573 361.94681552 -109.17092258 365.28585418 -112.9765625 368.5390625 C-115.42830939 370.73077563 -117.72791823 373.04348354 -120.0390625 375.3828125 C-123.56012573 378.94681552 -127.17092258 382.28585418 -130.9765625 385.5390625 C-133.42830939 387.73077563 -135.72791823 390.04348354 -138.0390625 392.3828125 C-142.21513561 396.5970814 -146.48650608 400.58039322 -151.0390625 404.3828125 C-151.8434375 405.06472656 -152.6478125 405.74664063 -153.4765625 406.44921875 C-160.82642731 412.53302453 -166.49161412 416.2051033 -176.0390625 417.3828125 C-176.30944336 416.66029297 -176.57982422 415.93777344 -176.85839844 415.19335938 C-190.18535672 379.82609204 -206.71332084 347.86187237 -233.0390625 320.3828125 C-233.59045898 319.79886719 -234.14185547 319.21492188 -234.70996094 318.61328125 C-244.0610106 308.74820943 -253.98147705 300.27805076 -265.0390625 292.3828125 C-265.64121582 291.94662598 -266.24336914 291.51043945 -266.86376953 291.06103516 C-282.35832489 279.91902941 -299.58828953 270.61546306 -317.41503906 263.82958984 C-319.32046645 263.08868369 -321.18531875 262.24492013 -323.0390625 261.3828125 C-324.2127088 257.86187361 -323.6693723 256.19143847 -322.30078125 252.81640625 C-316.18724909 241.02467086 -306.07052474 231.74841732 -296.1015625 223.2265625 C-292.74870401 220.22931022 -289.64012494 216.99121616 -286.48046875 213.79296875 C-283.76703523 211.11426718 -280.93129227 208.63673132 -278.03515625 206.16015625 C-275.77773624 204.15012473 -273.66170537 202.03448297 -271.5390625 199.8828125 C-268.81076843 197.11720842 -266.05389416 194.46994219 -263.1015625 191.9453125 C-259.9287033 189.22662002 -256.97567868 186.35529575 -254.0390625 183.3828125 C-250.49674051 179.79722551 -246.86350589 176.43389588 -243.03515625 173.16015625 C-240.77773624 171.15012473 -238.66170537 169.03448297 -236.5390625 166.8828125 C-233.81076843 164.11720842 -231.05389416 161.46994219 -228.1015625 158.9453125 C-224.9287033 156.22662002 -221.97567868 153.35529575 -219.0390625 150.3828125 C-215.51799927 146.81880948 -211.90720242 143.47977082 -208.1015625 140.2265625 C-204.74870401 137.22931022 -201.64012494 133.99121616 -198.48046875 130.79296875 C-195.76703523 128.11426718 -192.93129227 125.63673132 -190.03515625 123.16015625 C-187.77773624 121.15012473 -185.66170537 119.03448297 -183.5390625 116.8828125 C-180.81076843 114.11720842 -178.05389416 111.46994219 -175.1015625 108.9453125 C-171.9287033 106.22662002 -168.97567868 103.35529575 -166.0390625 100.3828125 C-162.51799927 96.81880948 -158.90720242 93.47977082 -155.1015625 90.2265625 C-151.74870401 87.22931022 -148.64012494 83.99121616 -145.48046875 80.79296875 C-142.76703523 78.11426718 -139.93129227 75.63673132 -137.03515625 73.16015625 C-134.77773624 71.15012473 -132.66170537 69.03448297 -130.5390625 66.8828125 C-127.81076843 64.11720842 -125.05389416 61.46994219 -122.1015625 58.9453125 C-118.9287033 56.22662002 -115.97567868 53.35529575 -113.0390625 50.3828125 C-109.49674051 46.79722551 -105.86350589 43.43389588 -102.03515625 40.16015625 C-99.77773624 38.15012473 -97.66170537 36.03448297 -95.5390625 33.8828125 C-92.81076843 31.11720842 -90.05389416 28.46994219 -87.1015625 25.9453125 C-83.9287033 23.22662002 -80.97567868 20.35529575 -78.0390625 17.3828125 C-73.86175659 13.16729952 -69.58228408 9.19773139 -65.0390625 5.3828125 C-64.28109375 4.7125 -63.523125 4.0421875 -62.7421875 3.3515625 C-44.89637897 -11.87989191 -19.48097926 -13.1967924 0 0 Z " fill="#000000" transform="translate(1157.0390625,832.6171875)"/>
<path d="M0 0 C8.60798896 7.79281217 16.43932414 16.03185098 23.54296875 25.23046875 C24.1767041 26.04161133 24.1767041 26.04161133 24.82324219 26.86914062 C49.59962414 58.75809972 65.36949475 98.30364307 65.78125 138.98046875 C65.79600876 140.19168396 65.79600876 140.19168396 65.81106567 141.42736816 C65.98746067 159.67190041 65.81034191 177.38286214 61.54296875 195.23046875 C61.30690918 196.21821289 61.07084961 197.20595703 60.82763672 198.22363281 C52.41976675 232.03942448 36.37570033 262.72556201 11.54296875 287.23046875 C7.48987962 285.87943904 5.12436091 284.16858986 2.16796875 281.10546875 C1.38679688 280.29851562 0.605625 279.4915625 -0.19921875 278.66015625 C-2.7494705 275.91576769 -5.20673748 273.10581148 -7.64453125 270.26171875 C-9.66796005 267.99408303 -11.79356472 265.86469925 -13.95703125 263.73046875 C-17.36421915 260.36932393 -20.53161299 256.89345672 -23.64453125 253.26171875 C-25.66796005 250.99408303 -27.79356472 248.86469925 -29.95703125 246.73046875 C-32.72263533 244.00217468 -35.36990156 241.24530041 -37.89453125 238.29296875 C-40.61322373 235.12010955 -43.484548 232.16708493 -46.45703125 229.23046875 C-50.04261824 225.68814676 -53.40594787 222.05491214 -56.6796875 218.2265625 C-59.40680348 215.16380148 -62.35107762 212.32823382 -65.26953125 209.44921875 C-67.85900006 206.82275753 -70.24540089 204.06070417 -72.64453125 201.26171875 C-74.66796005 198.99408303 -76.79356472 196.86469925 -78.95703125 194.73046875 C-82.36421915 191.36932393 -85.53161299 187.89345672 -88.64453125 184.26171875 C-90.66796005 181.99408303 -92.79356472 179.86469925 -94.95703125 177.73046875 C-97.72263533 175.00217468 -100.36990156 172.24530041 -102.89453125 169.29296875 C-105.61322373 166.12010955 -108.484548 163.16708493 -111.45703125 160.23046875 C-115.04261824 156.68814676 -118.40594787 153.05491214 -121.6796875 149.2265625 C-124.40680348 146.16380148 -127.35107762 143.32823382 -130.26953125 140.44921875 C-132.85900006 137.82275753 -135.24540089 135.06070417 -137.64453125 132.26171875 C-139.66796005 129.99408303 -141.79356472 127.86469925 -143.95703125 125.73046875 C-147.36421915 122.36932393 -150.53161299 118.89345672 -153.64453125 115.26171875 C-155.66796005 112.99408303 -157.79356472 110.86469925 -159.95703125 108.73046875 C-163.36421915 105.36932393 -166.53161299 101.89345672 -169.64453125 98.26171875 C-171.66796005 95.99408303 -173.79356472 93.86469925 -175.95703125 91.73046875 C-179.36421915 88.36932393 -182.53161299 84.89345672 -185.64453125 81.26171875 C-187.66796005 78.99408303 -189.79356472 76.86469925 -191.95703125 74.73046875 C-195.36421915 71.36932393 -198.53161299 67.89345672 -201.64453125 64.26171875 C-203.66796005 61.99408303 -205.79356472 59.86469925 -207.95703125 57.73046875 C-211.36421915 54.36932393 -214.53161299 50.89345672 -217.64453125 47.26171875 C-219.66796005 44.99408303 -221.79356472 42.86469925 -223.95703125 40.73046875 C-227.36421915 37.36932393 -230.53161299 33.89345672 -233.64453125 30.26171875 C-235.66796005 27.99408303 -237.79356472 25.86469925 -239.95703125 23.73046875 C-243.35899405 20.37447842 -246.52310141 16.90562043 -249.62890625 13.27734375 C-252.42586405 10.14570723 -255.43155763 7.2342508 -258.44140625 4.30859375 C-263.45703125 -0.86255451 -263.45703125 -0.86255451 -263.45703125 -5.76953125 C-262.16625977 -7.25830078 -262.16625977 -7.25830078 -260.3359375 -8.65234375 C-259.6567627 -9.17473633 -258.97758789 -9.69712891 -258.27783203 -10.23535156 C-257.15997314 -11.05664551 -257.15997314 -11.05664551 -256.01953125 -11.89453125 C-254.86686768 -12.75449707 -254.86686768 -12.75449707 -253.69091797 -13.63183594 C-180.32574894 -67.41001613 -75.1241248 -63.68192767 0 0 Z " fill="#000000" transform="translate(894.45703125,1165.76953125)"/>
<path d="M0 0 C0.99 0.495 0.99 0.495 2 1 C0.781172 2.320397 -0.43765764 3.64079249 -1.65649414 4.96118164 C-2.73383228 6.12831172 -3.81114274 7.29546735 -4.88842773 8.46264648 C-7.61899735 11.42099424 -10.34991892 14.37901437 -13.08203125 17.3359375 C-18.3516978 23.04015363 -23.61155698 28.75303315 -28.85571289 34.48071289 C-32.7321468 38.7126428 -36.62481704 42.92942924 -40.51953125 47.14453125 C-43.85467204 50.75544595 -47.18063499 54.37458153 -50.5 58 C-54.3037442 62.15395406 -58.11654486 66.29937089 -61.9375 70.4375 C-62.43056641 70.97181641 -62.92363281 71.50613281 -63.43164062 72.05664062 C-66.04475499 74.88723134 -68.66218372 77.71369688 -71.28515625 80.53515625 C-71.82342041 81.11531494 -72.36168457 81.69547363 -72.91625977 82.29321289 C-73.94007693 83.39657435 -74.96521558 84.49871171 -75.99194336 85.59936523 C-78.16883156 87.94760869 -80.15616816 90.22729425 -81.97265625 92.87109375 C-84 95 -84 95 -86.83984375 95.34765625 C-87.86207031 95.25355469 -88.88429688 95.15945313 -89.9375 95.0625 C-94.73918794 94.82953568 -94.73918794 94.82953568 -99.125 96.6875 C-101.95918321 100.18299262 -103.06427477 102.4574055 -102.875 107 C-101.82480872 110.60065582 -100.72718873 112.41634752 -98 115 C-93.75208426 116.92358449 -91.76207503 117.21592126 -87.25 115.9375 C-83.67831798 113.80822803 -82.43191867 112.87460346 -81 109 C-81.15311523 107.64423421 -81.32144044 106.29014985 -81.5 104.9375 C-81.6356985 100.83262028 -80.39613422 98.790001 -77.68188477 95.74658203 C-75.68594454 93.66045866 -73.65419323 91.6151872 -71.59521484 89.59130859 C-68.99483576 86.99729713 -66.53738846 84.27549965 -64.0625 81.5625 C-63.05155243 80.46673592 -62.0398299 79.37168633 -61.02734375 78.27734375 C-59.03873209 76.12519705 -57.05175281 73.97156528 -55.06640625 71.81640625 C-49.1162913 65.35939298 -43.13771112 58.92997914 -37.14111328 52.51611328 C-32.67715779 47.73691018 -28.2557427 42.92098907 -23.84375 38.09375 C-19.99776072 33.89812533 -16.10446852 29.74653021 -12.21337891 25.59277344 C-9.38973211 22.57495706 -6.5789782 19.54769037 -3.8046875 16.484375 C-3.30839844 15.93716797 -2.81210938 15.38996094 -2.30078125 14.82617188 C-0.96577104 13.35034552 0.36493031 11.87062464 1.6953125 10.390625 C3.69315276 8.31828901 5.63894454 6.63206599 8 5 C7.2914065 9.47242132 5.7532151 13.53065885 4.11328125 17.7265625 C3.50463634 19.30964479 2.89667733 20.89299091 2.28930664 22.4765625 C1.96737335 23.31348633 1.64544006 24.15041016 1.31375122 25.01269531 C-15.38339401 68.57621848 -31.13417517 113.1246714 -34 160 C-35.1967334 160.20568604 -36.3934668 160.41137207 -37.62646484 160.62329102 C-77.51937959 166.58520048 -77.51937959 166.58520048 -115.28808594 179.95532227 C-117.59411481 181.09438633 -119.48766601 181.99232458 -122.0859375 182.03125 C-125.05675328 180.43064721 -127.05964793 178.00706514 -129.25 175.5 C-130.3165802 174.31148664 -131.38435139 173.12404132 -132.453125 171.9375 C-133.02353516 171.30070313 -133.59394531 170.66390625 -134.18164062 170.0078125 C-137.40000168 166.45413348 -140.70576318 162.98316349 -144 159.5 C-145.35297169 158.05739211 -146.70583717 156.6146846 -148.05859375 155.171875 C-150.58376607 152.48512632 -153.13667955 149.83133586 -155.72265625 147.203125 C-156.5724707 146.32430664 -156.5724707 146.32430664 -157.43945312 145.42773438 C-158.49254413 144.33916016 -159.55711348 143.26153079 -160.63476562 142.19726562 C-162.03515625 140.734375 -162.03515625 140.734375 -164 138 C-163.5973649 134.51470116 -162.49879652 131.33107118 -161.328125 128.03515625 C-151.985653 101.2355821 -147.52336083 74.09416666 -144 46 C-143.20722656 45.99742187 -142.41445312 45.99484375 -141.59765625 45.9921875 C-103.5255672 44.7301293 -63.31957578 26.07971841 -28.6015625 11.71875 C-27.70820694 11.34969543 -26.81485138 10.98064087 -25.89442444 10.60040283 C-21.44630262 8.76085947 -17.00313029 6.91060329 -12.56713867 5.04199219 C-10.94716003 4.36639937 -9.32712688 3.69093724 -7.70703125 3.015625 C-6.95640411 2.69541382 -6.20577698 2.37520264 -5.43240356 2.04528809 C-3.6450373 1.30425964 -1.82468624 0.64367807 0 0 Z " fill="#000000" transform="translate(1410,660)"/>
<path d="M0 0 C3.12324544 1.38629244 5.24190707 2.99511571 7.64453125 5.4140625 C8.32193359 6.09339844 8.99933594 6.77273438 9.69726562 7.47265625 C10.39529297 8.18292969 11.09332031 8.89320312 11.8125 9.625 C12.49892578 10.31207031 13.18535156 10.99914063 13.89257812 11.70703125 C17.91575287 15.76446197 21.74609645 19.93835267 25.47924805 24.26318359 C27.23545289 26.26890542 29.08243866 28.14856146 31 30 C33.55522582 32.46711459 35.92447883 35.03728171 38.25 37.71875 C42.04943738 42.09336873 46.00797267 46.3014885 50 50.5 C54.57741275 55.31417548 59.07214391 60.17214529 63.42382812 65.19189453 C66.21124598 68.38948075 69.10566408 71.49022039 71.984375 74.60546875 C77 80.56395349 77 80.56395349 77 85 C76.34 85.0825 75.68 85.165 75 85.25 C71.74137997 86.06465501 69.18529813 87.35411421 66.2578125 88.96484375 C55.02649365 94.11415084 39.5898025 93.75005944 27.875 90.4375 C12.51650607 84.69057985 0.51293793 74.68619516 -7 60 C-12.90483402 45.47194801 -14.17663376 29.99066859 -9 15 C-6.66349512 9.72854721 -4.09459058 4.09459058 0 0 Z " fill="#000000" transform="translate(721,1271)"/>
<path d="M0 0 C0.83144531 -0.02578125 1.66289063 -0.0515625 2.51953125 -0.078125 C9.15984964 0.73854666 13.20492257 4.8440862 17.625 9.4375 C18.19702148 10.02047852 18.76904297 10.60345703 19.35839844 11.20410156 C22.87628383 14.81408867 26.25354884 18.51593873 29.515625 22.359375 C32.19892844 25.39376487 35.11746621 28.18766937 38 31.03125 C40.588516 33.6567448 42.97531375 36.41525147 45.3671875 39.21875 C47.41851815 41.50778849 49.59949225 43.61733247 51.8125 45.75 C57.65884732 51.61633483 61.41301537 55.83454589 61.75 64.375 C61.51489871 69.42014663 60.76106837 72.48834908 57.1875 76.25 C52.51768272 80.26821487 48.22831903 81.4465335 42.1875 81.25 C31.64989436 79.21046342 24.58073215 69.00761664 17.9296875 61.2109375 C15.21705756 58.15770829 12.28149547 55.3359685 9.375 52.46875 C6.78473413 49.84148034 4.39714655 47.07956368 2 44.27734375 C-0.01636444 42.0219706 -2.14618008 39.92393005 -4.3125 37.8125 C-16.26087688 25.98688041 -16.26087688 25.98688041 -17.125 17 C-16.63189793 11.08277512 -14.54751541 6.90038051 -10.25 2.8125 C-6.78357817 0.59043472 -4.03983216 0.07446695 0 0 Z " fill="#000000" transform="translate(1225.8125,798.75)"/>
<path d="M0 0 C3.33761045 2.15090451 4.73470933 3.20412799 6 7 C6.18995122 8.76324282 6.37736124 10.52685374 6.54370117 12.29248047 C8.272512 29.74426316 15.640105 43.5518005 29 55 C38.74773247 62.19857217 49.53078814 65.3135134 61.48095703 66.14160156 C66.13269803 66.54873068 68.79959616 67.56364957 72 71 C72.92700172 74.09727633 72.6807629 76.85579848 72 80 C70.25 82.5625 70.25 82.5625 67 84 C50.06358995 86.26521192 31.45217265 79.40812491 18.0625 69.1875 C2.37173801 56.59635336 -8.35689739 39.12421689 -11 19 C-11.97982709 6.55619597 -11.97982709 6.55619597 -8.875 1.625 C-5.46418575 -0.30285153 -3.85187398 -0.72222637 0 0 Z " fill="#000000" transform="translate(669,1330)"/>
<path d="M0 0 C0.66 -0.0103125 1.32 -0.020625 2 -0.03125 C4.96866058 0.75730047 6.14238145 2.08068253 8 4.5 C8.65234375 7.41796875 8.65234375 7.41796875 8.9375 10.6875 C10.04500931 19.34355957 13.215291 25.84607584 20 31.5 C25.40645123 35.32956962 30.5023267 36.40227111 37.01171875 37.49609375 C40.72692994 38.74421045 41.9742281 40.18778901 44 43.5 C44 47.3194882 43.50090068 49.65064668 41.5625 52.9375 C36.5587219 55.98858421 31.35400405 54.98693597 25.80859375 53.83984375 C14.14991383 50.66020377 5.02706869 44.38474329 -2 34.5 C-6.1327384 26.92331293 -8.1512596 20.62211804 -8.3125 12 C-8.34988281 10.6903125 -8.38726563 9.380625 -8.42578125 8.03125 C-8 4.5 -8 4.5 -6.23046875 2.0625 C-3.88255189 0.41772462 -2.82499705 -0.04414058 0 0 Z " fill="#000000" transform="translate(696,1330.5)"/>
</svg>
