<?xml version="1.0" encoding="UTF-8"?>
<svg id="Layer_1" data-name="Layer 1" xmlns="http://www.w3.org/2000/svg" version="1.1" viewBox="0 0 500 500">
  <defs>
    <style>
      .cls-1 {
        fill: #000;
        stroke-width: 0px;
      }
    </style>
  </defs>
  <path class="cls-1" d="M330.22,196.64c-1.13-9.84,10.04-36.95,10.04-36.95l-21.13,22.82c.14.29.26,1.18.26,1.18-.17,2.9-2.68,3.01-2.68,3.01-2.07.33-3.03-1.74-3.03-1.74-.88-2.03.64-3.38.64-3.38,1.67-1.58,3.55-.46,3.55-.46l20.79-22.58c-30.53,13.09-34.7,11.05-34.7,11.05-1.23,14.49-4.8,21.7-4.8,21.7l10.06,10.73c5.06-3.37,21-5.37,21-5.37Z"/>
  <path class="cls-1" d="M302.03,209.76c1.49,1.58,4,1.65,5.58.17,1.58-1.49,1.65-4,.17-5.58l-10.64-11.29c-1.49-1.58-4-1.65-5.58-.17s-1.65,4-.17,5.58l10.64,11.29Z"/>
  <path class="cls-1" d="M241.29,205.95l-109.06-115.76-35.24,33.2,109.06,115.76,35.24-33.2ZM183.3,206.14l11.05-10.41-15.93-17.02-11.15,10.5-3.63-3.86,11.16-10.51-16.16-17.25-11.15,10.5-3.63-3.86,11.16-10.51-15.92-17.01-11.15,10.5-3.63-3.86,11.16-10.51-14.16-15.12,3.9-3.65,14.15,15.11,11.37-10.71,3.63,3.86-11.38,10.72,15.92,17.01,11.43-10.77,3.63,3.86-11.45,10.78,16.16,17.25,11.5-10.83,3.63,3.86-11.51,10.84,15.93,17.02,11.56-10.89,3.63,3.86-11.57,10.9,14.76,15.76-3.9,3.65-14.75-15.75-11.04,10.4-3.63-3.86Z"/>
  <path class="cls-1" d="M403.47,377.56l-109.06-115.76-35.24,33.2,109.06,115.76,35.24-33.2ZM345.48,377.75l11.05-10.41-15.93-17.02-11.15,10.5-3.63-3.86,11.16-10.51-16.16-17.25-11.15,10.5-3.63-3.86,11.16-10.51-15.92-17.01-11.15,10.5-3.63-3.86,11.16-10.51-14.16-15.12,3.9-3.65,14.15,15.11,11.37-10.71,3.63,3.86-11.38,10.72,15.92,17.01,11.43-10.77,3.63,3.86-11.45,10.78,16.16,17.25,11.5-10.83,3.63,3.86-11.51,10.84,15.93,17.02,11.56-10.89,3.63,3.86-11.57,10.9,14.76,15.76-3.9,3.65-14.75-15.75-11.04,10.4-3.63-3.86Z"/>
  <path class="cls-1" d="M300.62,240.68c4.11-4.31,4.44-10.82.78-15.52-.5-.65-1.08-1.24-1.64-1.84-6.51-6.91-13.02-13.81-19.53-20.71-.5-.53-.99-1.07-1.53-1.57-4.52-4.14-11.03-4.31-15.74-.39-.63.52-1.21,1.11-1.81,1.67-18.91,17.84-37.83,35.68-56.74,53.52-.68.64-1.37,1.26-1.93,2.01-.56.75-1.14,1.53-1.63,2.31-.29.47-.5.94-.63,1.48-.02.06-.17.58-.08.62,17.83,6.94,29.56,19.48,35.42,37.57.6-.12,1.05-.16,1.46-.31,1.84-.67,3.29-1.9,4.7-3.23,19.17-18.1,38.35-36.19,57.53-54.28.46-.44.94-.87,1.38-1.33Z"/>
  <path class="cls-1" d="M151.47,278.8c.11.22.17.49.34.67,21.57,22.92,43.15,45.83,64.74,68.74.16.17.43.25.62.36,5-4.12,12.18-15.65,13.07-29.15.88-13.3-2.88-25.17-11.65-35.24-18.63-21.42-49.49-20.9-67.12-5.37Z"/>
  <rect class="cls-1" x="95.88" y="193.8" width="52.33" height="184.75"/>
  <polygon class="cls-1" points="95.22 137.2 95.88 193.8 148.2 193.8 95.22 137.2"/>
  <polygon class="cls-1" points="95.88 378.55 148.86 435.15 148.2 378.55 95.88 378.55"/>
  <g>
    <rect class="cls-1" x="352.64" y="122.88" width="52.33" height="184.75"/>
    <polygon class="cls-1" points="404.97 122.88 351.98 66.28 352.64 122.88 404.97 122.88"/>
    <polygon class="cls-1" points="405.63 364.23 404.97 307.63 352.64 307.63 405.63 364.23"/>
  </g>
  <path class="cls-1" d="M191.28,325.27l.24-.21-5.65-5.95c2.75,3.02,4.97,5.52,5.41,6.15Z"/>
  <g>
    <path class="cls-1" d="M176.41,335.51c-.12-.04-.26-.06-.38-.07-.42-.02-.85-.02-1.27-.05-.34-.02-.68-.07-1.01-.12-.36-.06-.71-.13-1.06-.21-.29-.07-.59-.15-.88-.24-.33-.11-.66-.22-.99-.35-.25-.09-.49-.2-.72-.31-.27-.12-.53-.25-.8-.39-.25-.13-.5-.27-.74-.42-.25-.15-.5-.31-.74-.48-.23-.16-.45-.34-.67-.51-.21-.17-.42-.34-.62-.53-.4-.39-.8-.8-1.19-1.21-.19-.2-.36-.41-.52-.62-.36-.46-.72-.93-1-1.45-.32-.58-.64-1.16-.89-1.76-.26-.62-.46-1.27-.65-1.91-.13-.46-.23-.94-.3-1.42-.08-.53-.1-1.07-.15-1.6-.03-.31-.03-.63-.07-.94-.08-.53-.36-.94-.82-1.23-.31-.19-.63-.31-1-.31-.61,0-1.12.22-1.51.71-.22.28-.38.59-.4.95-.01.32-.01.64,0,.96.02.42.04.85.09,1.27.05.46.12.92.21,1.38.1.53.21,1.06.37,1.59.22.74.47,1.46.78,2.17.29.67.6,1.34.99,1.96.23.37.45.74.7,1.1.33.47.67.93,1.04,1.38.35.42.73.81,1.11,1.21.2.21.41.4.62.59.2.18.41.36.63.54.22.18.44.35.67.52.23.17.46.34.7.49.23.16.47.3.7.45.26.16.53.32.79.47.23.13.47.25.72.36.29.14.59.27.89.4.26.11.51.21.77.31.32.11.64.22.97.32.28.08.55.16.83.23.33.08.66.15.99.22.4.07.8.13,1.2.19.13.02.26.04.39.05.37.03.74.05,1.1.08,0,0,0,.01,0,.02.27,0,.53-.01.8-.03.11,0,.22-.02.32-.05.66-.18,1.12-.59,1.32-1.26.1-.32.14-.65.05-.99-.19-.74-.65-1.21-1.38-1.43Z"/>
    <path class="cls-1" d="M165.85,325.5c.11.24.21.49.32.74.25.55.55,1.08.91,1.57.14.2.29.39.44.58.37.44.76.88,1.2,1.25.2.17.4.34.61.49.24.18.48.35.73.51.24.15.48.29.73.43.55.3,1.11.56,1.71.73.3.08.59.18.89.24.38.08.77.14,1.15.18.4.04.81.05,1.21.06.11,0,.22-.02.33-.06.5-.16.87-.48,1.11-.95.15-.3.25-.61.22-.96-.04-.47-.21-.88-.53-1.22-.06-.07-.13-.14-.21-.19-.37-.27-.79-.38-1.24-.4-.26-.01-.53-.04-.79-.08-.33-.06-.66-.14-.98-.24-.31-.1-.61-.23-.9-.37-.25-.12-.49-.26-.72-.42-.24-.16-.47-.33-.69-.51-.21-.17-.41-.36-.59-.56-.22-.24-.43-.49-.6-.76-.23-.35-.44-.72-.63-1.09-.29-.58-.44-1.21-.53-1.85-.06-.43-.06-.87-.09-1.31-.05-.7-.36-1.23-.99-1.56-.27-.14-.56-.25-.88-.23-.35.02-.67.1-.97.27-.43.24-.68.63-.89,1.05-.02.03-.02.08-.02.12,0,.24,0,.48,0,.72,0,0-.01,0-.02,0,0,.24.01.48.02.73.02.45.06.9.16,1.34.14.6.26,1.21.52,1.78Z"/>
    <path class="cls-1" d="M173.19,305.13c-4.35,5.58-3.69,13.43,1.44,18.23,2.64,2.48,5.8,3.7,9.43,3.72,2.97.01,5.4-.8,7.22-2.44l-5.08-.72-13.01-18.79Z"/>
    <path class="cls-1" d="M173.19,305.13l12.68,13.36c-4.84-5.3-11.32-12.19-12.68-13.36Z"/>
    <path class="cls-1" d="M173.19,305.13l13.01,18.79,5.08.72c-.44-.64-2.66-3.14-5.41-6.15l-12.68-13.36Z"/>
  </g>
</svg>